<?xml version="1.0" encoding="UTF-8" standalone="no" ?>
<!DOCTYPE svg PUBLIC "-//W3C//DTD SVG 1.1//EN" "http://www.w3.org/Graphics/SVG/1.1/DTD/svg11.dtd">
<svg xmlns="http://www.w3.org/2000/svg" xmlns:xlink="http://www.w3.org/1999/xlink" version="1.1" width="1080" height="1080" viewBox="0 0 1080 1080" xml:space="preserve">
<desc>Created with Fabric.js 5.2.4</desc>
<defs>
</defs>
<g transform="matrix(1 0 0 1 540 540)" id="ecab01dd-c6be-4f52-bc61-7c12de0919ec"  >
</g>
<g transform="matrix(1 0 0 1 540 540)" id="18342d54-a9d2-4dee-973f-9bc7bf67949b"  >
<rect style="stroke: none; stroke-width: 1; stroke-dasharray: none; stroke-linecap: butt; stroke-dashoffset: 0; stroke-linejoin: miter; stroke-miterlimit: 4; fill: rgb(255,255,255); fill-rule: nonzero; opacity: 1; visibility: hidden;" vector-effect="non-scaling-stroke"  x="-540" y="-540" rx="0" ry="0" width="1080" height="1080" />
</g>
<g transform="matrix(1 0 0 1 317.92 460.35)"  >
<path style="stroke: none; stroke-width: 1; stroke-dasharray: none; stroke-linecap: butt; stroke-dashoffset: 0; stroke-linejoin: miter; stroke-miterlimit: 4; fill: rgb(19,170,225); fill-rule: nonzero; opacity: 1;" vector-effect="non-scaling-stroke"  transform=" translate(-484.42, -368.35)" d="M 458.760986 126.728867 C 488.911194 112.034843 518.351807 112.832787 546.024658 131.119766 C 573.783997 149.463928 585.344971 176.639954 583.881226 209.454575 C 585.906738 210.087799 587.02594 208.867416 588.288513 208.175323 C 671.624207 162.491486 752.856812 166.215607 831.352783 219.533173 C 855.714966 236.080917 874.983582 258.054413 890.357361 283.280212 C 891.469971 285.105743 892.751221 286.746521 891.49646 289.225555 C 884.192627 303.655609 878.395386 318.701508 873.561462 334.97052 C 869.879944 327.243683 866.89032 320.041046 863.145081 313.255432 C 833.43811 259.432037 788.346924 226.130997 727.496216 217.67067 C 659.154175 208.168793 602.269226 231.611008 558.168518 284.764252 C 536.125854 311.331573 523.743591 342.408386 519.537292 376.540253 C 518.409241 385.693756 520.549866 395.133087 520.04071 404.464996 C 515.330566 490.802582 474.91925 554.79541 399.00827 595.90155 C 364.857635 614.394287 327.750092 621.74939 289.01532 619.956177 C 237.81366 617.585693 192.578781 599.655273 153.775894 566.118164 C 115.804207 533.299377 91.373146 492.113373 81.553688 442.982788 C 69.799416 384.171539 79.920563 328.816803 112.722168 278.429535 C 146.415451 226.672501 194.004044 194.091156 254.491501 181.616623 C 308.474792 170.48349 359.80542 179.08902 407.967834 206.055573 C 408.549286 206.381134 409.155609 206.67218 409.701141 207.050323 C 412.731171 209.150436 414.033051 209.103867 413.986511 204.694122 C 413.621887 170.142303 428.673676 144.29451 458.760986 126.728867 z" stroke-linecap="round" />
</g>
<g transform="matrix(1 0 0 1 752.85 491.6)"  >
<path style="stroke: none; stroke-width: 1; stroke-dasharray: none; stroke-linecap: butt; stroke-dashoffset: 0; stroke-linejoin: miter; stroke-miterlimit: 4; fill: rgb(19,170,225); fill-rule: nonzero; opacity: 1;" vector-effect="non-scaling-stroke"  transform=" translate(-919.35, -399.59)" d="M 524.473145 480.369934 C 526.268677 475.156036 527.913696 470.302856 529.8974 464.450317 C 531.07489 466.761292 531.915344 468.25473 532.617249 469.810669 C 559.215698 528.771057 603.807068 566.710938 667.439819 578.22699 C 740.75061 591.494446 801.290588 566.83551 847.516907 508.391876 C 869.277222 480.880463 880.659424 448.924683 883.765015 414.113739 C 884.813477 402.361176 883.566162 390.497314 884.773132 378.673096 C 891.213684 315.581543 919.110168 264.013153 968.612732 224.640411 C 1011.950012 190.171158 1061.957397 174.144577 1117.157227 177.519348 C 1187.488159 181.819214 1243.959961 213.028107 1285.526001 270.053192 C 1315.441895 311.09549 1328.88855 357.555756 1326.734619 408.156189 C 1324.54834 459.515686 1306.834961 505.374939 1272.49939 543.698975 C 1218.168823 604.34082 1149.976685 628.822815 1069.348633 617.112854 C 1030.564941 611.480164 996.251587 595.042236 965.725403 570.584229 C 961.538208 567.229248 961.579895 567.26886 960.708557 572.491272 C 956.790466 595.974609 943.879639 612.270996 921.030029 619.299072 C 899.47406 625.929382 880.107117 620.70874 864.018555 604.906738 C 854.410217 595.469604 849.431458 583.582764 848.068359 570.178284 C 847.929932 568.81665 848.843323 566.829041 846.990662 566.250061 C 845.703857 565.8479 844.689148 567.355286 843.691833 568.194885 C 817.505066 590.240662 787.882874 605.765381 754.588379 613.653198 C 693.400879 628.149048 635.832214 618.937073 582.452148 585.510803 C 554.33905 567.906494 531.737305 544.631042 513.814819 516.733521 C 511.524139 513.167908 510.899506 510.364807 513.171997 506.363129 C 517.778198 498.251923 521.126038 489.503754 524.473145 480.369934 z" stroke-linecap="round" />
</g>
<g transform="matrix(1 0 0 1 515.91 491.06)"  >
<path style="stroke: none; stroke-width: 1; stroke-dasharray: none; stroke-linecap: butt; stroke-dashoffset: 0; stroke-linejoin: miter; stroke-miterlimit: 4; fill: rgb(22,96,144); fill-rule: nonzero; opacity: 1;" vector-effect="non-scaling-stroke"  transform=" translate(-682.42, -399.06)" d="M 762.381226 396.303467 C 756.520996 412.923157 745.471863 424.437103 730.287292 432.071777 C 726.892212 433.778809 726.380066 434.932922 728.67865 438.168121 C 741.311707 455.948486 753.720642 473.888123 766.172424 491.796844 C 767.187866 493.257324 768.606323 494.524078 768.899902 496.51297 C 767.69104 497.875153 766.104919 497.235687 764.734009 497.240997 C 751.574951 497.291931 738.41394 497.153229 725.257629 497.349335 C 722.006348 497.397827 720.167358 496.295013 718.373352 493.664032 C 707.49292 477.707855 696.382202 461.908813 685.475769 445.970123 C 683.913269 443.686676 682.344971 442.539734 679.454041 442.579468 C 668.295837 442.73291 657.131775 442.762299 645.975281 442.550659 C 642.440918 442.483673 641.453613 443.616638 641.49115 447.078186 C 641.655579 462.234528 641.445679 477.395172 641.64386 492.55069 C 641.691956 496.227844 640.77948 497.424316 636.947754 497.349213 C 624.626282 497.107727 612.295471 497.174133 599.971436 497.347687 C 597.007141 497.389435 595.92572 496.803497 595.930481 493.568817 C 596.023071 430.60434 596.0047 367.63974 595.971191 304.67514 C 595.969971 302.422485 596.096619 300.926636 599.068787 300.981232 C 631.698975 301.58078 664.392822 299.421844 696.95459 302.160126 C 718.683411 303.987457 738.282349 311.815369 752.191589 329.595459 C 767.850525 349.612061 769.21521 372.238892 762.381226 396.303467 z" stroke-linecap="round" />
</g>
<g transform="matrix(1 0 0 1 595.88 563.87)"  >
<path style="stroke: none; stroke-width: 1; stroke-dasharray: none; stroke-linecap: butt; stroke-dashoffset: 0; stroke-linejoin: miter; stroke-miterlimit: 4; fill: rgb(20,170,224); fill-rule: nonzero; opacity: 1;" vector-effect="non-scaling-stroke"  transform=" translate(-762.38, -471.87)" d="M 790.677734 489.967468 C 790.797424 489.6427 790.96167 489.283691 791.12384 489.171143 C 791.662476 488.512451 792.069336 487.991547 792.806458 487.321899 C 793.061584 487.110901 793.018555 487.034668 793.060791 487.046021 C 807.565979 471.978485 818.611389 454.507294 828.559448 436.279846 C 829.500854 434.555054 830.342041 432.710297 830.848145 430.438904 C 831.102478 430.183838 831.051697 430.096313 831.10022 430.08197 C 838.086304 416.865662 842.910522 402.841919 847.114258 388.593628 C 847.811035 386.231842 848.970459 384.045593 849.407715 381.57016 C 849.637085 380.271484 850.210876 378.388611 852.203674 378.691589 C 853.871216 378.94516 853.760986 380.597839 853.949097 381.866608 C 854.069824 382.680847 854.014709 383.519958 854.40094 384.68219 C 854.652771 385.486725 854.755859 385.931854 854.826843 386.720978 C 855.358398 390.49231 854.557007 393.986633 855.463257 397.738953 C 855.688538 398.787659 855.753113 399.502411 855.734985 400.569366 C 854.206604 406.276031 855.4104 411.747559 854.886719 417.550415 C 854.832703 418.708099 854.827209 419.460236 854.716553 420.575317 C 852.63092 428.963226 851.53363 437.161621 849.197571 445.139374 C 844.915161 459.763824 838.695129 473.436737 830.571716 486.272095 C 828.358521 489.769196 826.291687 493.375916 823.537354 496.966888 C 823.399109 497.324768 823.325623 497.013214 823.346802 497.171631 C 821.791382 497.909149 821.668213 499.710938 820.460693 500.990051 C 820.369263 501.302704 820.36261 501.072388 820.351013 501.186432 C 818.806885 501.904999 818.711853 503.746185 817.322998 504.89447 C 817.15863 505.173279 817.049377 505.074554 817.119263 505.097809 C 811.107849 512.093994 804.84021 518.879822 797.4599 524.99115 C 797.344788 525.317749 797.242004 525.359009 797.284302 525.323975 C 794.048462 527.757874 791.087097 530.648865 787.395508 533.013062 C 787.311096 533.346558 786.981934 533.256897 787.143799 533.313477 C 785.994324 533.619751 785.369568 534.787109 784.189453 535.722412 C 783.95459 535.918701 783.973572 535.998901 783.94281 535.971436 C 775.655823 541.506165 766.823425 546.038086 757.941589 550.483398 C 756.15918 551.375427 754.389771 552.285828 752.225891 552.990845 C 752.040833 553.305786 751.845825 553.456726 751.72522 553.43103 C 737.422913 558.883606 722.794434 562.561707 707.319092 564.482971 C 706.506287 564.735291 706.060242 564.810242 705.275146 564.845581 C 694.972412 565.419678 685.042908 564.870728 675.119751 563.980042 C 673.925049 563.872803 672.907654 563.293091 671.772217 563.066772 C 670.659607 562.845032 669.110962 562.932434 669.032288 561.468872 C 668.943787 559.820862 670.582031 559.522644 671.81311 559.112122 C 675.277588 557.956665 678.817383 557.049683 682.310303 555.981018 C 713.390076 546.471375 742.013 532.269836 767.33667 511.717743 C 767.987732 511.189362 768.710938 510.788605 769.552734 510.013336 C 769.667053 509.638824 769.997925 509.732941 769.837952 509.669556 C 772.454407 508.460724 773.779907 505.445496 776.569824 503.94574 C 776.598389 503.610931 776.73053 503.820465 776.69281 503.702484 C 777.072266 503.743561 777.420959 503.659973 777.680908 502.985596 C 777.672302 502.678589 777.899292 503.030396 777.77887 502.857666 C 778.402466 502.702484 778.476807 502.115173 778.853027 501.429871 C 779.070923 501.256042 779.297668 500.958282 779.469727 500.884644 C 783.791687 497.835236 787.011536 493.894287 790.677734 489.967468 z" stroke-linecap="round" />
</g>
<g transform="matrix(1 0 0 1 549.48 629.7)"  >
<path style="stroke: none; stroke-width: 1; stroke-dasharray: none; stroke-linecap: butt; stroke-dashoffset: 0; stroke-linejoin: miter; stroke-miterlimit: 4; fill: rgb(69,177,216); fill-rule: nonzero; opacity: 1;" vector-effect="non-scaling-stroke"  transform=" translate(-715.98, -537.7)" d="M 769.334045 509.713684 C 767.941101 514.708984 762.796265 516.181458 759.145996 518.959351 C 740.050049 533.492188 718.757141 543.984314 696.22876 552.214294 C 687.485962 555.408142 678.383057 557.462646 668.473755 561.160889 C 681.049133 565.12738 692.785828 563.549438 704.623901 564.543518 C 690.939453 567.043396 677.242004 565.122253 662.616882 562.147949 C 666.53363 559.180847 670.390015 558.901917 673.882446 557.897278 C 707.995361 548.084106 739.661621 533.469543 767.286987 510.80722 C 767.794983 510.390472 768.426941 510.124756 769.334045 509.713684 z" stroke-linecap="round" />
</g>
<g transform="matrix(1 0 0 1 672.47 551.13)"  >
<path style="stroke: none; stroke-width: 1; stroke-dasharray: none; stroke-linecap: butt; stroke-dashoffset: 0; stroke-linejoin: miter; stroke-miterlimit: 4; fill: rgb(69,177,216); fill-rule: nonzero; opacity: 1;" vector-effect="non-scaling-stroke"  transform=" translate(-838.96, -459.13)" d="M 823.697449 497.199066 C 823.143433 492.55304 827.125549 489.919952 829.298645 486.546539 C 835.939819 476.237091 840.711487 465.146698 845.350586 453.87149 C 849.701599 443.296692 850.734131 431.981628 854.276917 421.060791 C 853.925293 432.477783 850.84436 443.492706 846.993347 454.288788 C 841.49762 469.695343 834.049561 484.095612 823.697449 497.199066 z" stroke-linecap="round" />
</g>
<g transform="matrix(1 0 0 1 676.56 492.92)"  >
<path style="stroke: none; stroke-width: 1; stroke-dasharray: none; stroke-linecap: butt; stroke-dashoffset: 0; stroke-linejoin: miter; stroke-miterlimit: 4; fill: rgb(69,177,216); fill-rule: nonzero; opacity: 1;" vector-effect="non-scaling-stroke"  transform=" translate(-843.07, -400.92)" d="M 854.651245 384.633636 C 851.707214 384.089874 854.020081 380.989288 852.00238 379.350189 C 849.190002 381.046844 849.003296 384.590515 848.472656 386.922882 C 845.750427 398.887604 840.579346 409.950653 836.520447 421.405518 C 835.476196 424.352448 834.308105 427.591675 831.484863 429.9888 C 837.169678 415.462372 843.111694 400.827698 847.493042 385.619904 C 848.813599 381.03595 850.106079 376.443878 851.90625 371.847321 C 853.46637 375.899536 854.456177 379.979553 854.651245 384.633636 z" stroke-linecap="round" />
</g>
<g transform="matrix(1 0 0 1 645.67 550.7)"  >
<path style="stroke: none; stroke-width: 1; stroke-dasharray: none; stroke-linecap: butt; stroke-dashoffset: 0; stroke-linejoin: miter; stroke-miterlimit: 4; fill: rgb(69,177,216); fill-rule: nonzero; opacity: 1;" vector-effect="non-scaling-stroke"  transform=" translate(-812.17, -458.7)" d="M 830.838135 430.382996 C 831.290649 434.259644 828.898499 437.354065 827.108032 440.675934 C 818.551086 456.551666 808.580566 471.452454 796.508362 484.89209 C 795.757935 485.727478 794.69873 486.285614 793.443115 487.015045 C 798.2724 480.426971 803.578674 473.89798 808.580688 467.143585 C 817.077148 455.670319 824.074707 443.270203 830.838135 430.382996 z" stroke-linecap="round" />
</g>
<g transform="matrix(1 0 0 1 562.79 651.03)"  >
<path style="stroke: none; stroke-width: 1; stroke-dasharray: none; stroke-linecap: butt; stroke-dashoffset: 0; stroke-linejoin: miter; stroke-miterlimit: 4; fill: rgb(69,177,216); fill-rule: nonzero; opacity: 1;" vector-effect="non-scaling-stroke"  transform=" translate(-729.29, -559.03)" d="M 707.383179 564.758301 C 708.05896 561.810425 710.730713 563.054321 712.594055 562.785278 C 725.664429 560.898315 738.24939 557.172546 751.193481 553.302856 C 742.587402 558.618835 732.463989 560.452942 722.517456 562.718384 C 717.703796 563.81488 712.72052 564.167053 707.383179 564.758301 z" stroke-linecap="round" />
</g>
<g transform="matrix(1 0 0 1 601.49 636.61)"  >
<path style="stroke: none; stroke-width: 1; stroke-dasharray: none; stroke-linecap: butt; stroke-dashoffset: 0; stroke-linejoin: miter; stroke-miterlimit: 4; fill: rgb(69,177,216); fill-rule: nonzero; opacity: 1;" vector-effect="non-scaling-stroke"  transform=" translate(-767.99, -544.61)" d="M 752.430542 553.283691 C 758.133728 548.514893 765.356689 545.73114 772.162109 542.253418 C 775.956543 540.314392 778.911194 536.972046 783.548462 535.944092 C 774.549011 543.513611 763.926636 548.822083 752.430542 553.283691 z" stroke-linecap="round" />
</g>
<g transform="matrix(1 0 0 1 640.66 607.22)"  >
<path style="stroke: none; stroke-width: 1; stroke-dasharray: none; stroke-linecap: butt; stroke-dashoffset: 0; stroke-linejoin: miter; stroke-miterlimit: 4; fill: rgb(69,177,216); fill-rule: nonzero; opacity: 1;" vector-effect="non-scaling-stroke"  transform=" translate(-807.16, -515.23)" d="M 797.672363 525.247681 C 797.447876 524.698425 797.325256 523.848206 797.687561 523.494019 C 803.931091 517.388855 810.234436 511.344879 816.856812 505.204254 C 812.159485 513.114319 805.240356 519.299683 797.672363 525.247681 z" stroke-linecap="round" />
</g>
<g transform="matrix(1 0 0 1 688.42 501.34)"  >
<path style="stroke: none; stroke-width: 1; stroke-dasharray: none; stroke-linecap: butt; stroke-dashoffset: 0; stroke-linejoin: miter; stroke-miterlimit: 4; fill: rgb(69,177,216); fill-rule: nonzero; opacity: 1;" vector-effect="non-scaling-stroke"  transform=" translate(-854.93, -409.34)" d="M 855.054749 417.614807 C 853.541931 412.368073 853.471191 406.78775 855.297241 401.069336 C 856.314819 406.390686 856.007324 411.837158 855.054749 417.614807 z" stroke-linecap="round" />
</g>
<g transform="matrix(1 0 0 1 618.75 587.31)"  >
<path style="stroke: none; stroke-width: 1; stroke-dasharray: none; stroke-linecap: butt; stroke-dashoffset: 0; stroke-linejoin: miter; stroke-miterlimit: 4; fill: rgb(69,177,216); fill-rule: nonzero; opacity: 1;" vector-effect="non-scaling-stroke"  transform=" translate(-785.25, -495.31)" d="M 790.480469 489.766815 C 789.095764 495.03064 784.72937 497.947327 780.009888 500.844482 C 782.652039 496.692169 786.54364 493.422455 790.480469 489.766815 z" stroke-linecap="round" />
</g>
<g transform="matrix(1 0 0 1 625.81 621.3)"  >
<path style="stroke: none; stroke-width: 1; stroke-dasharray: none; stroke-linecap: butt; stroke-dashoffset: 0; stroke-linejoin: miter; stroke-miterlimit: 4; fill: rgb(69,177,216); fill-rule: nonzero; opacity: 1;" vector-effect="non-scaling-stroke"  transform=" translate(-792.31, -529.29)" d="M 787.648682 533.28241 C 789.095886 529.149841 793.140564 527.571472 796.966736 525.305908 C 795.007385 528.867615 791.469849 531.011169 787.648682 533.28241 z" stroke-linecap="round" />
</g>
<g transform="matrix(1 0 0 1 688.34 484.5)"  >
<path style="stroke: none; stroke-width: 1; stroke-dasharray: none; stroke-linecap: butt; stroke-dashoffset: 0; stroke-linejoin: miter; stroke-miterlimit: 4; fill: rgb(69,177,216); fill-rule: nonzero; opacity: 1;" vector-effect="non-scaling-stroke"  transform=" translate(-854.84, -392.5)" d="M 855.741455 397.629791 C 852.512085 394.948944 854.479248 391.172607 854.541504 387.369232 C 856.336975 390.314026 855.618958 393.80069 855.741455 397.629791 z" stroke-linecap="round" />
</g>
<g transform="matrix(1 0 0 1 606.66 598.7)"  >
<path style="stroke: none; stroke-width: 1; stroke-dasharray: none; stroke-linecap: butt; stroke-dashoffset: 0; stroke-linejoin: miter; stroke-miterlimit: 4; fill: rgb(69,177,216); fill-rule: nonzero; opacity: 1;" vector-effect="non-scaling-stroke"  transform=" translate(-773.16, -506.7)" d="M 776.277954 503.696411 C 775.506409 506.654236 773.432312 508.713531 770.035217 509.70575 C 771.236328 507.088043 773.582886 505.4198 776.277954 503.696411 z" stroke-linecap="round" />
</g>
<g transform="matrix(1 0 0 1 652.16 595.19)"  >
<path style="stroke: none; stroke-width: 1; stroke-dasharray: none; stroke-linecap: butt; stroke-dashoffset: 0; stroke-linejoin: miter; stroke-miterlimit: 4; fill: rgb(69,177,216); fill-rule: nonzero; opacity: 1;" vector-effect="non-scaling-stroke"  transform=" translate(-818.66, -503.19)" d="M 817.467407 505.065979 C 816.921936 503.210205 818.163269 502.195801 819.984009 501.312805 C 820.04248 502.910492 818.988647 503.990143 817.467407 505.065979 z" stroke-linecap="round" />
</g>
<g transform="matrix(1 0 0 1 655.2 591.26)"  >
<path style="stroke: none; stroke-width: 1; stroke-dasharray: none; stroke-linecap: butt; stroke-dashoffset: 0; stroke-linejoin: miter; stroke-miterlimit: 4; fill: rgb(69,177,216); fill-rule: nonzero; opacity: 1;" vector-effect="non-scaling-stroke"  transform=" translate(-821.7, -499.26)" d="M 820.669067 501.189026 C 819.792725 499.216248 821.131836 498.229187 823.005493 497.335419 C 823.074036 498.902405 822.113953 500.048126 820.669067 501.189026 z" stroke-linecap="round" />
</g>
<g transform="matrix(1 0 0 1 619.11 626.59)"  >
<path style="stroke: none; stroke-width: 1; stroke-dasharray: none; stroke-linecap: butt; stroke-dashoffset: 0; stroke-linejoin: miter; stroke-miterlimit: 4; fill: rgb(69,177,216); fill-rule: nonzero; opacity: 1;" vector-effect="non-scaling-stroke"  transform=" translate(-785.61, -534.59)" d="M 784.273315 535.899536 C 784.141174 534.332642 784.856689 533.259827 786.954956 533.279175 C 786.810486 534.649231 785.709717 535.273865 784.273315 535.899536 z" stroke-linecap="round" />
</g>
<g transform="matrix(1 0 0 1 625.68 580.09)"  >
<path style="stroke: none; stroke-width: 1; stroke-dasharray: none; stroke-linecap: butt; stroke-dashoffset: 0; stroke-linejoin: miter; stroke-miterlimit: 4; fill: rgb(69,177,216); fill-rule: nonzero; opacity: 1;" vector-effect="non-scaling-stroke"  transform=" translate(-792.18, -488.09)" d="M 792.778076 487.179688 C 793.019104 487.957977 792.684937 488.616119 791.575195 489.008911 C 791.311829 488.203461 791.735779 487.614166 792.778076 487.179688 z" stroke-linecap="round" />
</g>
<g transform="matrix(1 0 0 1 611.88 594)"  >
<path style="stroke: none; stroke-width: 1; stroke-dasharray: none; stroke-linecap: butt; stroke-dashoffset: 0; stroke-linejoin: miter; stroke-miterlimit: 4; fill: rgb(69,177,216); fill-rule: nonzero; opacity: 1;" vector-effect="non-scaling-stroke"  transform=" translate(-778.38, -502)" d="M 778.805115 501.314697 C 778.796997 501.733795 778.523071 502.211548 777.953735 502.687134 C 777.952026 502.247711 778.245667 501.810516 778.805115 501.314697 z" stroke-linecap="round" />
</g>
<g transform="matrix(1 0 0 1 610.65 595.17)"  >
<path style="stroke: none; stroke-width: 1; stroke-dasharray: none; stroke-linecap: butt; stroke-dashoffset: 0; stroke-linejoin: miter; stroke-miterlimit: 4; fill: rgb(69,177,216); fill-rule: nonzero; opacity: 1;" vector-effect="non-scaling-stroke"  transform=" translate(-777.15, -503.17)" d="M 777.43396 502.738617 C 777.523254 502.994598 777.374146 503.310577 776.940063 503.60553 C 776.705933 503.233643 776.886047 502.97168 777.43396 502.738617 z" stroke-linecap="round" />
</g>
<g transform="matrix(1 0 0 1 146.32 491.02)"  >
<path style="stroke: none; stroke-width: 1; stroke-dasharray: none; stroke-linecap: butt; stroke-dashoffset: 0; stroke-linejoin: miter; stroke-miterlimit: 4; fill: rgb(252,254,254); fill-rule: nonzero; opacity: 1;" vector-effect="non-scaling-stroke"  transform=" translate(-312.81, -399.02)" d="M 476.447937 442.379303 C 460.76886 500.604614 426.141998 543.214966 371.11499 566.443848 C 303.926422 594.806641 240.183334 585.481262 182.895447 540.139038 C 145.964828 510.909149 124.255295 471.892059 117.480042 425.304626 C 110.020332 374.010681 122.339806 327.344727 154.19249 286.36261 C 183.442764 248.728745 221.887741 225.451233 268.980927 218.038757 C 327.743317 208.789566 379.421387 224.901886 423.439056 264.9021 C 442.819855 282.514069 457.285431 303.744629 467.484344 327.87381 C 468.050476 329.213226 468.820465 330.466492 469.90387 332.542206 C 472.31842 325.7789 474.462311 319.752838 476.621033 313.732056 C 479.546783 305.571899 483.235809 297.745239 486.942383 289.921021 C 488.153931 287.363647 489.588959 286.169067 492.697601 286.552094 C 498.232513 287.23407 503.840851 286.815735 510.259155 286.115997 C 507.370483 291.680176 504.853546 296.321564 502.521118 301.053864 C 484.570862 337.473236 477.635681 375.988647 480.388763 416.410797 C 480.982483 425.127991 478.232483 433.515564 476.447937 442.379303 z" stroke-linecap="round" />
</g>
<g transform="matrix(1 0 0 1 332.41 293.76)"  >
<path style="stroke: none; stroke-width: 1; stroke-dasharray: none; stroke-linecap: butt; stroke-dashoffset: 0; stroke-linejoin: miter; stroke-miterlimit: 4; fill: rgb(251,254,254); fill-rule: nonzero; opacity: 1;" vector-effect="non-scaling-stroke"  transform=" translate(-498.91, -201.76)" d="M 497.15097 271.912079 C 461.45816 270.506744 432.184906 243.445038 429.079224 209.415604 C 425.770142 173.157242 448.636383 141.205292 483.534851 133.32251 C 522.015076 124.630714 560.667847 149.938187 567.836548 188.518021 C 575.218567 228.246582 548.347595 265.671234 508.559479 271.216583 C 504.905853 271.72583 501.280243 271.905548 497.15097 271.912079 z" stroke-linecap="round" />
</g>
<g transform="matrix(1 0 0 1 924.86 490.6)"  >
<path style="stroke: none; stroke-width: 1; stroke-dasharray: none; stroke-linecap: butt; stroke-dashoffset: 0; stroke-linejoin: miter; stroke-miterlimit: 4; fill: rgb(252,254,254); fill-rule: nonzero; opacity: 1;" vector-effect="non-scaling-stroke"  transform=" translate(-1091.36, -398.6)" d="M 952.64856 297.649963 C 985.752991 249.742218 1030.895874 222.253006 1088.467651 216.24678 C 1160.788452 208.701889 1232.992065 248.040375 1266.958374 312.397125 C 1282.067505 341.024658 1289.48877 371.457428 1288.637695 403.708221 C 1286.317871 491.610779 1220.755005 566.417175 1133.661743 579.568237 C 1077.045044 588.11731 1026.755249 572.864197 983.540039 535.163757 C 962.075989 516.438843 946.399048 493.49118 935.506042 467.224762 C 935.000854 466.006653 934.413757 464.82254 933.712341 463.289368 C 931.837646 464.542664 931.811523 466.47641 931.337341 468.033295 C 927.397644 480.968262 922.333252 493.4422 916.467285 505.619354 C 915.098633 508.46048 913.434204 509.411163 910.289856 509.143738 C 906.160461 508.792542 901.973999 509.159912 897.814209 509.089264 C 896.599609 509.068665 895.034607 510.345734 894.210205 508.778076 C 893.516785 507.459564 894.805237 506.278503 895.426086 505.161133 C 902.732483 492.011139 908.563721 478.238037 912.981201 463.863647 C 919.683655 442.053772 923.226318 419.736633 922.836548 396.922089 C 922.218628 360.743195 933.056885 328.092957 952.64856 297.649963 z" stroke-linecap="round" />
</g>
<g transform="matrix(1 0 0 1 737.92 657.32)"  >
<path style="stroke: none; stroke-width: 1; stroke-dasharray: none; stroke-linecap: butt; stroke-dashoffset: 0; stroke-linejoin: miter; stroke-miterlimit: 4; fill: rgb(249,254,254); fill-rule: nonzero; opacity: 1;" vector-effect="non-scaling-stroke"  transform=" translate(-904.42, -565.32)" d="M 949.811279 554.365967 C 954.722595 576.999939 943.954285 598.577332 923.383789 607.908752 C 903.909119 616.743164 880.077332 610.626343 867.390442 593.537292 C 853.823608 575.263062 854.695374 550.655701 870.208374 533.856689 C 882.196411 520.874756 897.464111 516.133118 914.713501 520.027771 C 933.034912 524.164429 944.533264 535.959351 949.811279 554.365967 z" stroke-linecap="round" />
</g>
<g transform="matrix(1 0 0 1 514.55 464.14)"  >
<path style="stroke: none; stroke-width: 1; stroke-dasharray: none; stroke-linecap: butt; stroke-dashoffset: 0; stroke-linejoin: miter; stroke-miterlimit: 4; fill: rgb(252,254,254); fill-rule: nonzero; opacity: 1;" vector-effect="non-scaling-stroke"  transform=" translate(-681.05, -372.14)" d="M 661.00061 406.203979 C 655.335144 406.200317 650.168579 406.138855 645.004272 406.219482 C 642.713867 406.255249 641.461243 405.978821 641.482727 403.037201 C 641.631592 382.70871 641.565247 362.378632 641.563293 342.049042 C 641.56311 340.168396 641.40863 338.219727 644.210999 338.318848 C 660.99408 338.912476 677.940552 336.444916 694.546631 340.087616 C 719.269043 345.510742 728.982849 375.440552 712.342041 394.459351 C 705.168091 402.658539 695.36615 405.34964 684.987793 405.956085 C 677.180481 406.412354 669.331055 406.147675 661.00061 406.203979 z" stroke-linecap="round" />
</g>
<g transform="matrix(1 0 0 1 143.47 491.15)"  >
<path style="stroke: none; stroke-width: 1; stroke-dasharray: none; stroke-linecap: butt; stroke-dashoffset: 0; stroke-linejoin: miter; stroke-miterlimit: 4; fill: rgb(21,96,144); fill-rule: nonzero; opacity: 1;" vector-effect="non-scaling-stroke"  transform=" translate(-309.97, -399.15)" d="M 367.907471 317.059326 C 391.8237 334.943115 398.530334 359.170654 393.574921 386.904541 C 388.554535 415.002014 369.861816 431.00708 343.394897 438.867249 C 333.282532 441.870422 322.866913 443.118164 312.306305 443.098785 C 300.140259 443.076477 287.969788 443.278473 275.810455 442.992096 C 271.562073 442.892029 270.102142 443.779877 270.204315 448.38382 C 270.533386 463.209045 270.212585 478.047638 270.397095 492.87793 C 270.440948 496.400269 269.417267 497.388489 265.918732 497.329071 C 253.756165 497.122467 241.584152 497.07785 229.424042 497.346649 C 225.460358 497.434265 224.837036 495.991058 224.842407 492.463135 C 224.937363 430.132965 224.934097 367.802582 224.83812 305.472412 C 224.832886 302.074799 225.618729 300.930969 229.217087 300.95047 C 256.881592 301.100311 284.549713 300.811493 312.211792 301.111267 C 332.016388 301.325867 350.943817 305.280396 367.907471 317.059326 z" stroke-linecap="round" />
</g>
<g transform="matrix(1 0 0 1 190.45 560.75)"  >
<path style="stroke: none; stroke-width: 1; stroke-dasharray: none; stroke-linecap: butt; stroke-dashoffset: 0; stroke-linejoin: miter; stroke-miterlimit: 4; fill: rgb(22,171,224); fill-rule: nonzero; opacity: 1;" vector-effect="non-scaling-stroke"  transform=" translate(-356.95, -468.75)" d="M 429.591553 484.563904 C 407.817596 519.771851 377.759033 544.252136 338.893433 557.429443 C 315.183899 565.46814 290.808777 567.89801 265.990417 563.092773 C 264.372314 562.779541 262.780487 562.330383 260.811035 561.42572 C 360.939911 535.740845 423.430634 472.68457 448.79895 371.951935 C 457.090942 396.672028 454.681305 443.60498 429.591553 484.563904 z" stroke-linecap="round" />
</g>
<g transform="matrix(1 0 0 1 334.85 244.73)"  >
<path style="stroke: none; stroke-width: 1; stroke-dasharray: none; stroke-linecap: butt; stroke-dashoffset: 0; stroke-linejoin: miter; stroke-miterlimit: 4; fill: rgb(24,170,223); fill-rule: nonzero; opacity: 1;" vector-effect="non-scaling-stroke"  transform=" translate(-501.35, -152.73)" d="M 462.669373 154.966766 C 462.822906 154.60997 463.067291 154.269989 463.255127 154.177551 C 468.74585 150.449051 474.218811 147.146973 480.716553 145.132126 C 481.450623 144.615234 481.954376 144.37085 482.743164 144.130722 C 487.44281 143.069 491.8927 142.193756 496.719391 141.480804 C 497.774963 141.219009 498.516418 141.132889 499.630493 141.088409 C 500.173157 141.226288 500.34317 141.32251 500.757935 141.257599 C 503.03183 141.117828 505.060974 141.139206 507.51535 141.253174 C 516.770935 143.09787 525.523132 145.10022 533.927002 149.507263 C 534.280151 149.665314 534.228882 149.914719 534.277832 149.79718 C 536.097473 151.718414 538.910217 152.351974 541.008057 154.472733 C 541.335632 154.554214 541.172546 154.668472 541.268616 154.642334 C 543.385376 156.705536 546.160461 158.107727 547.243896 161.421982 C 547.110107 161.981247 546.966248 162.178421 546.489929 162.536484 C 540.851196 162.136185 536.582825 158.690643 531.165283 157.340958 C 530.803223 157.249405 530.952087 157.089462 530.899048 157.184998 C 528.069275 155.468185 524.786133 155.429337 521.364441 154.727051 C 520.569458 154.756104 520.118286 154.729919 519.356201 154.565002 C 507.962677 151.53894 496.859863 152.002106 485.353088 154.379517 C 484.525848 154.659119 484.09201 154.785873 483.31723 154.903595 C 475.429779 155.842224 468.610931 159.07373 461.348755 161.963394 C 460.430481 162.646332 459.764374 163.070908 458.883179 163.722107 C 455.68631 165.156265 454.611176 164.111313 456.166229 161.364532 C 457.619019 158.798325 459.859772 156.771896 462.669373 154.966766 z" stroke-linecap="round" />
</g>
<g transform="matrix(1 0 0 1 375.46 253.24)"  >
<path style="stroke: none; stroke-width: 1; stroke-dasharray: none; stroke-linecap: butt; stroke-dashoffset: 0; stroke-linejoin: miter; stroke-miterlimit: 4; fill: rgb(69,177,216); fill-rule: nonzero; opacity: 1;" vector-effect="non-scaling-stroke"  transform=" translate(-541.96, -161.24)" d="M 531.001953 157.532684 C 536.557556 156.836502 540.716919 161.546539 546.619202 161.999756 C 545.152893 159.747986 543.256592 157.536087 541.362488 154.970184 C 546.920288 157.205902 549.891479 162.2388 552.915833 167.510345 C 545.67749 164.278885 538.439087 161.047424 531.001953 157.532684 z" stroke-linecap="round" />
</g>
<g transform="matrix(1 0 0 1 335.64 245.26)"  >
<path style="stroke: none; stroke-width: 1; stroke-dasharray: none; stroke-linecap: butt; stroke-dashoffset: 0; stroke-linejoin: miter; stroke-miterlimit: 4; fill: rgb(69,177,216); fill-rule: nonzero; opacity: 1;" vector-effect="non-scaling-stroke"  transform=" translate(-502.14, -153.26)" d="M 485.3685 154.630829 C 485.614105 152.367157 487.725006 152.779297 489.116913 152.600281 C 497.782959 151.485687 506.497772 151.915466 515.192078 152.343796 C 516.405823 152.40361 517.578491 153.294952 518.907837 154.113815 C 507.942139 152.998245 496.84668 152.42897 485.3685 154.630829 z" stroke-linecap="round" />
</g>
<g transform="matrix(1 0 0 1 354.59 237.66)"  >
<path style="stroke: none; stroke-width: 1; stroke-dasharray: none; stroke-linecap: butt; stroke-dashoffset: 0; stroke-linejoin: miter; stroke-miterlimit: 4; fill: rgb(69,177,216); fill-rule: nonzero; opacity: 1;" vector-effect="non-scaling-stroke"  transform=" translate(-521.1, -145.66)" d="M 534.127502 149.366364 C 532.097351 150.24855 530.440186 148.778961 528.772095 147.951035 C 522.248047 144.71286 514.950439 144.322617 508.064331 141.685455 C 517.321594 141.549622 525.880493 144.525482 534.127502 149.366364 z" stroke-linecap="round" />
</g>
<g transform="matrix(1 0 0 1 290.75 253.32)"  >
<path style="stroke: none; stroke-width: 1; stroke-dasharray: none; stroke-linecap: butt; stroke-dashoffset: 0; stroke-linejoin: miter; stroke-miterlimit: 4; fill: rgb(69,177,216); fill-rule: nonzero; opacity: 1;" vector-effect="non-scaling-stroke"  transform=" translate(-457.25, -161.32)" d="M 462.486115 154.709412 C 461.949707 157.594803 459.075592 158.899948 457.323914 161.149597 C 456.333801 162.421188 455.19516 163.64621 458.344666 163.934631 C 456.452698 165.276657 454.237305 166.604584 452.021881 167.932495 C 453.976166 162.27919 457.326233 157.94928 462.486115 154.709412 z" stroke-linecap="round" />
</g>
<g transform="matrix(1 0 0 1 305.57 250.43)"  >
<path style="stroke: none; stroke-width: 1; stroke-dasharray: none; stroke-linecap: butt; stroke-dashoffset: 0; stroke-linejoin: miter; stroke-miterlimit: 4; fill: rgb(69,177,216); fill-rule: nonzero; opacity: 1;" vector-effect="non-scaling-stroke"  transform=" translate(-472.06, -158.43)" d="M 461.397369 162.223389 C 467.347198 157.211136 474.85379 155.632996 482.730621 154.644974 C 475.883545 157.338013 468.790833 159.781509 461.397369 162.223389 z" stroke-linecap="round" />
</g>
<g transform="matrix(1 0 0 1 305.67 241.45)"  >
<path style="stroke: none; stroke-width: 1; stroke-dasharray: none; stroke-linecap: butt; stroke-dashoffset: 0; stroke-linejoin: miter; stroke-miterlimit: 4; fill: rgb(69,177,216); fill-rule: nonzero; opacity: 1;" vector-effect="non-scaling-stroke"  transform=" translate(-472.17, -149.46)" d="M 480.559784 144.843811 C 475.335693 147.923019 469.724548 150.98645 463.778198 154.067474 C 468.130615 149.392899 474.0065 146.848129 480.559784 144.843811 z" stroke-linecap="round" />
</g>
<g transform="matrix(1 0 0 1 323.45 234.8)"  >
<path style="stroke: none; stroke-width: 1; stroke-dasharray: none; stroke-linecap: butt; stroke-dashoffset: 0; stroke-linejoin: miter; stroke-miterlimit: 4; fill: rgb(69,177,216); fill-rule: nonzero; opacity: 1;" vector-effect="non-scaling-stroke"  transform=" translate(-489.95, -142.8)" d="M 496.61911 141.213348 C 492.966553 144.182281 487.965302 143.2677 483.277039 144.384125 C 487.111633 141.780411 491.729187 141.761612 496.61911 141.213348 z" stroke-linecap="round" />
</g>
<g transform="matrix(1 0 0 1 371.25 244.17)"  >
<path style="stroke: none; stroke-width: 1; stroke-dasharray: none; stroke-linecap: butt; stroke-dashoffset: 0; stroke-linejoin: miter; stroke-miterlimit: 4; fill: rgb(69,177,216); fill-rule: nonzero; opacity: 1;" vector-effect="non-scaling-stroke"  transform=" translate(-537.74, -152.17)" d="M 541.219238 154.25209 C 538.081787 154.679642 536.299377 152.275223 534.265869 150.043304 C 537.061951 150.347015 539.181396 151.991425 541.219238 154.25209 z" stroke-linecap="round" />
</g>
<g transform="matrix(1 0 0 1 359.54 247.63)"  >
<path style="stroke: none; stroke-width: 1; stroke-dasharray: none; stroke-linecap: butt; stroke-dashoffset: 0; stroke-linejoin: miter; stroke-miterlimit: 4; fill: rgb(69,177,216); fill-rule: nonzero; opacity: 1;" vector-effect="non-scaling-stroke"  transform=" translate(-526.03, -155.63)" d="M 521.357788 154.961792 C 524.599304 153.306595 527.568237 155.049988 530.710693 156.936188 C 527.665649 157.123734 524.701599 156.041367 521.357788 154.961792 z" stroke-linecap="round" />
</g>
<g transform="matrix(1 0 0 1 333.92 233.16)"  >
<path style="stroke: none; stroke-width: 1; stroke-dasharray: none; stroke-linecap: butt; stroke-dashoffset: 0; stroke-linejoin: miter; stroke-miterlimit: 4; fill: rgb(69,177,216); fill-rule: nonzero; opacity: 1;" vector-effect="non-scaling-stroke"  transform=" translate(-500.42, -141.16)" d="M 500.750061 141.023926 C 500.730499 141.211761 500.458344 141.327087 500.094666 141.286224 C 500.167908 141.070496 500.332703 141.010956 500.750061 141.023926 z" stroke-linecap="round" />
</g>
<g transform="matrix(1 0 0 1 930.88 491.36)"  >
<path style="stroke: none; stroke-width: 1; stroke-dasharray: none; stroke-linecap: butt; stroke-dashoffset: 0; stroke-linejoin: miter; stroke-miterlimit: 4; fill: rgb(22,96,144); fill-rule: nonzero; opacity: 1;" vector-effect="non-scaling-stroke"  transform=" translate(-1097.38, -399.37)" d="M 1034.927734 483.090881 C 980.930176 448.358673 977.833984 374.579437 1013.362732 333.984772 C 1033.701538 310.745941 1059.854614 299.554901 1090.309448 297.970886 C 1120.401123 296.405762 1148.046387 303.55719 1170.929932 323.888733 C 1200.805664 350.432556 1210.367432 384.287384 1201.84436 422.598724 C 1193.401611 460.548798 1168.580811 484.749084 1131.807129 495.59549 C 1098.219604 505.502136 1065.570312 501.920715 1034.927734 483.090881 z" stroke-linecap="round" />
</g>
<g transform="matrix(1 0 0 1 997.15 560.81)"  >
<path style="stroke: none; stroke-width: 1; stroke-dasharray: none; stroke-linecap: butt; stroke-dashoffset: 0; stroke-linejoin: miter; stroke-miterlimit: 4; fill: rgb(22,170,224); fill-rule: nonzero; opacity: 1;" vector-effect="non-scaling-stroke"  transform=" translate(-1163.65, -468.82)" d="M 1153.385864 524.398926 C 1208.356323 487.635895 1239.79126 435.358124 1256.213135 372.745483 C 1266.803589 428.85199 1250.473145 477.067932 1210.96521 516.654541 C 1171.637939 556.059998 1123.667236 572.307922 1067.927002 561.742371 C 1097.927368 552.997437 1126.900513 542.010864 1153.385864 524.398926 z" stroke-linecap="round" />
</g>
<g transform="matrix(1 0 0 1 728.18 681.19)"  >
<path style="stroke: none; stroke-width: 1; stroke-dasharray: none; stroke-linecap: butt; stroke-dashoffset: 0; stroke-linejoin: miter; stroke-miterlimit: 4; fill: rgb(37,172,219); fill-rule: nonzero; opacity: 1;" vector-effect="non-scaling-stroke"  transform=" translate(-894.68, -589.19)" d="M 867.140869 578.255249 C 866.616089 577.543945 866.329163 577.056213 866.021851 576.280579 C 866.444946 574.819397 867.314758 574.325134 868.93335 574.508423 C 869.325928 574.618835 869.269043 574.627136 869.284607 574.651306 C 869.382507 575.559082 870.353271 575.802246 870.850403 576.749512 C 871.058777 576.962036 871.018677 577.007996 871.026245 576.978638 C 871.209595 577.234436 871.4328 577.475525 871.906982 577.813843 C 885.643311 592.293945 902.113708 599.485596 921.968567 598.477661 C 922.388733 598.456299 922.824951 598.752258 923.346191 598.932068 C 914.267456 606.832581 887.630188 606.943542 872.111877 587.31604 C 871.540466 586.567749 871.541626 585.934631 871.029785 585.274719 C 870.769775 585.137268 870.923279 585.025024 870.863892 585.099243 C 870.593933 584.559265 870.555298 583.880676 869.801147 583.27948 C 869.480835 583.208862 869.184631 582.990356 869.118774 582.818481 C 868.242249 581.358765 867.731934 579.950378 867.140869 578.255249 z" stroke-linecap="round" />
</g>
<g transform="matrix(1 0 0 1 700.25 663.3)"  >
<path style="stroke: none; stroke-width: 1; stroke-dasharray: none; stroke-linecap: butt; stroke-dashoffset: 0; stroke-linejoin: miter; stroke-miterlimit: 4; fill: rgb(69,177,216); fill-rule: nonzero; opacity: 1;" vector-effect="non-scaling-stroke"  transform=" translate(-866.75, -571.3)" d="M 869.250244 574.294922 C 868.434814 574.979248 867.543701 575.339661 866.327026 575.846375 C 864.56604 573.51532 864.105774 570.838562 864.289612 566.754578 C 866.313354 569.744263 867.743958 571.857605 869.250244 574.294922 z" stroke-linecap="round" />
</g>
<g transform="matrix(1 0 0 1 701.48 672.34)"  >
<path style="stroke: none; stroke-width: 1; stroke-dasharray: none; stroke-linecap: butt; stroke-dashoffset: 0; stroke-linejoin: miter; stroke-miterlimit: 4; fill: rgb(69,177,216); fill-rule: nonzero; opacity: 1;" vector-effect="non-scaling-stroke"  transform=" translate(-867.98, -580.35)" d="M 866.907227 578.37207 C 868.352112 578.95343 868.781372 580.425476 869.046082 582.318359 C 867.679443 581.694336 867.371765 580.161865 866.907227 578.37207 z" stroke-linecap="round" />
</g>
<g transform="matrix(1 0 0 1 703.63 667.84)"  >
<path style="stroke: none; stroke-width: 1; stroke-dasharray: none; stroke-linecap: butt; stroke-dashoffset: 0; stroke-linejoin: miter; stroke-miterlimit: 4; fill: rgb(69,177,216); fill-rule: nonzero; opacity: 1;" vector-effect="non-scaling-stroke"  transform=" translate(-870.13, -575.84)" d="M 870.958618 576.671509 C 870.129333 576.781494 869.611206 576.158508 869.29657 574.997925 C 870.209534 574.887695 870.58606 575.586731 870.958618 576.671509 z" stroke-linecap="round" />
</g>
<g transform="matrix(1 0 0 1 703.7 676.13)"  >
<path style="stroke: none; stroke-width: 1; stroke-dasharray: none; stroke-linecap: butt; stroke-dashoffset: 0; stroke-linejoin: miter; stroke-miterlimit: 4; fill: rgb(69,177,216); fill-rule: nonzero; opacity: 1;" vector-effect="non-scaling-stroke"  transform=" translate(-870.2, -584.13)" d="M 869.562256 583.507446 C 870.265259 583.27771 870.741943 583.68335 870.835327 584.824097 C 870.417542 584.717651 870.030579 584.261841 869.562256 583.507446 z" stroke-linecap="round" />
</g>
<g transform="matrix(1 0 0 1 704.89 678.06)"  >
<path style="stroke: none; stroke-width: 1; stroke-dasharray: none; stroke-linecap: butt; stroke-dashoffset: 0; stroke-linejoin: miter; stroke-miterlimit: 4; fill: rgb(69,177,216); fill-rule: nonzero; opacity: 1;" vector-effect="non-scaling-stroke"  transform=" translate(-871.39, -586.06)" d="M 870.802612 585.43042 C 871.16687 585.552673 871.563965 585.96814 871.973816 586.694458 C 871.602905 586.578064 871.219238 586.150818 870.802612 585.43042 z" stroke-linecap="round" />
</g>
<g transform="matrix(1 0 0 1 705.08 669.44)"  >
<path style="stroke: none; stroke-width: 1; stroke-dasharray: none; stroke-linecap: butt; stroke-dashoffset: 0; stroke-linejoin: miter; stroke-miterlimit: 4; fill: rgb(69,177,216); fill-rule: nonzero; opacity: 1;" vector-effect="non-scaling-stroke"  transform=" translate(-871.58, -577.44)" d="M 872.032715 577.692322 C 871.818359 577.780884 871.526367 577.606567 871.134094 577.190796 C 871.340881 577.109375 871.647949 577.26947 872.032715 577.692322 z" stroke-linecap="round" />
</g>
<g transform="matrix(1 0 0 1 143.23 464.09)"  >
<path style="stroke: none; stroke-width: 1; stroke-dasharray: none; stroke-linecap: butt; stroke-dashoffset: 0; stroke-linejoin: miter; stroke-miterlimit: 4; fill: rgb(250,253,253); fill-rule: nonzero; opacity: 1;" vector-effect="non-scaling-stroke"  transform=" translate(-309.73, -372.09)" d="M 345.087219 388.925964 C 337.895233 401.17981 326.388184 405.075714 313.664337 405.706757 C 300.386566 406.365326 287.056976 405.944153 273.751465 406.10968 C 271.205597 406.141388 270.255646 405.378876 270.266815 402.721436 C 270.352112 382.426453 270.321289 362.130981 270.298889 341.835663 C 270.296692 339.842834 270.371796 338.181824 273.098358 338.258667 C 288.384918 338.689545 303.752319 337.086884 318.955902 339.166748 C 344.203217 342.620605 356.076172 365.263245 345.087219 388.925964 z" stroke-linecap="round" />
</g>
<g transform="matrix(1 0 0 1 380.69 254.22)"  >
<path style="stroke: none; stroke-width: 1; stroke-dasharray: none; stroke-linecap: butt; stroke-dashoffset: 0; stroke-linejoin: miter; stroke-miterlimit: 4; fill: rgb(24,170,223); fill-rule: nonzero; opacity: 1;" vector-effect="non-scaling-stroke"  transform=" translate(-547.19, -162.22)" d="M 547.025513 161.980835 C 547.164917 162.129379 547.280579 162.298889 547.39624 162.468414 C 547.295105 162.424286 547.19397 162.380142 547.026489 162.192657 C 546.960205 162.049301 547.001892 162.001801 547.025513 161.980835 z" stroke-linecap="round" />
</g>
<g transform="matrix(1 0 0 1 930.98 491.18)"  >
<path style="stroke: none; stroke-width: 1; stroke-dasharray: none; stroke-linecap: butt; stroke-dashoffset: 0; stroke-linejoin: miter; stroke-miterlimit: 4; fill: rgb(253,254,254); fill-rule: nonzero; opacity: 1;" vector-effect="non-scaling-stroke"  transform=" translate(-1097.48, -399.18)" d="M 1083.843262 460.309174 C 1049.838257 453.062378 1030.660522 421.472626 1037.663452 384.831055 C 1042.622925 358.880615 1063.051147 339.951599 1089.237671 337.041718 C 1117.923706 333.854095 1142.785522 347.669037 1153.359863 372.672394 C 1165.468872 401.304688 1156.521973 435.215729 1132.065918 451.533539 C 1117.547119 461.220764 1101.363647 463.747681 1083.843262 460.309174 z" stroke-linecap="round" />
</g>
<g transform="matrix(1 0 0 1 700.03 664.56)"  >
<path style="stroke: none; stroke-width: 1; stroke-dasharray: none; stroke-linecap: butt; stroke-dashoffset: 0; stroke-linejoin: miter; stroke-miterlimit: 4; fill: rgb(37,172,219); fill-rule: nonzero; opacity: 1;" vector-effect="non-scaling-stroke"  transform=" translate(-866.53, -572.56)" d="M 866.53186 572.561523 C 866.471069 572.600281 866.59259 572.522705 866.53186 572.561523 z" stroke-linecap="round" />
</g>
<g transform="matrix(1 0 0 1 548.63 860.2)" style="" id="2d50dd4a-5c4c-48aa-9943-12b1511f12f1"  >
		<text xml:space="preserve" font-family="Raleway" font-size="155" font-style="normal" font-weight="900" style="stroke: none; stroke-width: 1; stroke-dasharray: none; stroke-linecap: butt; stroke-dashoffset: 0; stroke-linejoin: miter; stroke-miterlimit: 4; fill: rgb(22,96,144); fill-rule: nonzero; opacity: 1; white-space: pre;" ><tspan x="-514.29" y="48.69" >C</tspan><tspan x="-353.71" y="48.69" >L</tspan><tspan x="-209.56" y="48.69" >E</tspan><tspan x="-63.55" y="48.69" >A</tspan><tspan x="93.31" y="48.69" >N</tspan><tspan x="263.65" y="48.69" >E</tspan><tspan x="409.66" y="48.69" >R</tspan></text>
</g>
</svg>