<svg xmlns="http://www.w3.org/2000/svg" xmlns:xlink="http://www.w3.org/1999/xlink" version="1.1" x="0px" y="0px" viewBox="0 0 100 125" enable-background="new 0 0 100 100" xml:space="preserve"><g><path d="M72.48,36.068c-7.499,2.02-15.223,3.043-22.96,3.043c0,0-0.001,0-0.002,0c-13.081-0.001-21.773-2.97-21.858-2.999   c-0.811-0.285-1.718-0.016-2.245,0.667c-0.525,0.684-0.555,1.627-0.071,2.342l23,34C48.716,73.671,49.336,74,50,74   s1.284-0.329,1.656-0.879l23-34c0.469-0.692,0.457-1.603-0.028-2.282C74.144,36.158,73.285,35.854,72.48,36.068z"/></g><text x="0" y="115" fill="#000000" font-size="5px" font-weight="bold" font-family="'Helvetica Neue', Helvetica, Arial-Unicode, Arial, Sans-serif">Created by sureya</text><text x="0" y="120" fill="#000000" font-size="5px" font-weight="bold" font-family="'Helvetica Neue', Helvetica, Arial-Unicode, Arial, Sans-serif">from the Noun Project</text></svg>