<svg xmlns="http://www.w3.org/2000/svg" xmlns:xlink="http://www.w3.org/1999/xlink" version="1.1" width="256" height="256" viewBox="0 0 256 256" xml:space="preserve">

<defs>
</defs>
<g style="stroke: none; stroke-width: 0; stroke-dasharray: none; stroke-linecap: butt; stroke-linejoin: miter; stroke-miterlimit: 10; fill: none; fill-rule: nonzero; opacity: 1;" transform="translate(1.4065934065934016 1.4065934065934016) scale(2.81 2.81)" >
	<path d="M 62.43 89.983 c -8.742 0 -17.485 -3.327 -24.142 -9.983 L 10 51.712 C 3.551 45.264 0 36.69 0 27.57 S 3.551 9.877 10 3.429 c 2.38 -2.379 5.671 -3.618 9.027 -3.404 c 3.357 0.216 6.461 1.867 8.517 4.531 l 7.737 10.029 c 3.088 4.002 2.721 9.717 -0.854 13.291 c -3.064 3.064 -3.064 8.05 0 11.115 L 51.01 55.572 c 1.484 1.484 3.458 2.302 5.558 2.302 c 2.099 0 4.073 -0.817 5.558 -2.302 c 3.573 -3.574 9.289 -3.942 13.29 -0.854 l 10.029 7.737 c 2.664 2.056 4.315 5.16 4.531 8.518 S 88.95 77.621 86.571 80 C 79.916 86.656 71.173 89.983 62.43 89.983 z M 18.26 6 c -1.517 0 -2.932 0.586 -4.018 1.672 C 3.27 18.644 3.27 36.497 14.242 47.47 L 42.53 75.758 c 10.973 10.971 28.826 10.97 39.799 0 c 1.176 -1.177 1.766 -2.739 1.659 -4.399 c -0.106 -1.661 -0.892 -3.136 -2.209 -4.152 l -10.028 -7.737 c -1.622 -1.248 -3.936 -1.103 -5.384 0.346 c -2.617 2.618 -6.099 4.06 -9.8 4.06 c -3.702 0 -7.183 -1.441 -9.8 -4.06 L 30.186 43.233 c -5.404 -5.404 -5.404 -14.197 0 -19.6 c 1.448 -1.448 1.596 -3.763 0.345 -5.384 L 22.793 8.22 c -1.017 -1.317 -2.491 -2.102 -4.151 -2.208 C 18.515 6.004 18.387 6 18.26 6 z" style="stroke: none; stroke-width: 1; stroke-dasharray: none; stroke-linecap: butt; stroke-linejoin: miter; stroke-miterlimit: 10; fill: rgb(0,0,0); fill-rule: nonzero; opacity: 1;" transform=" matrix(1 0 0 1 0 0) " stroke-linecap="round" />
	<path d="M 87 48 c -1.657 0 -3 -1.343 -3 -3 C 84 23.495 66.505 6 45 6 c -1.657 0 -3 -1.343 -3 -3 s 1.343 -3 3 -3 c 24.813 0 45 20.187 45 45 C 90 46.657 88.657 48 87 48 z" style="stroke: none; stroke-width: 1; stroke-dasharray: none; stroke-linecap: butt; stroke-linejoin: miter; stroke-miterlimit: 10; fill: rgb(0,0,0); fill-rule: nonzero; opacity: 1;" transform=" matrix(1 0 0 1 0 0) " stroke-linecap="round" />
	<path d="M 72.58 48 c -1.657 0 -3 -1.343 -3 -3 c 0 -13.554 -11.026 -24.581 -24.58 -24.581 c -1.657 0 -3 -1.343 -3 -3 s 1.343 -3 3 -3 c 16.862 0 30.58 13.718 30.58 30.581 C 75.58 46.657 74.237 48 72.58 48 z" style="stroke: none; stroke-width: 1; stroke-dasharray: none; stroke-linecap: butt; stroke-linejoin: miter; stroke-miterlimit: 10; fill: rgb(0,0,0); fill-rule: nonzero; opacity: 1;" transform=" matrix(1 0 0 1 0 0) " stroke-linecap="round" />
</g>
</svg>