<svg version="1.1" id="Layer_1" xmlns="http://www.w3.org/2000/svg" xmlns:xlink="http://www.w3.org/1999/xlink" x="0px" y="0px"
	 width="100%" viewBox="0 0 635 426" enable-background="new 0 0 635 426" xml:space="preserve">
<path fill="#FDFFFF" opacity="1.000000" stroke="none" 
	d="
M379.322937,426.747681 
	C372.645599,427.000000 366.291199,427.000000 359.468384,427.000000 
	C352.925781,425.137299 346.778137,425.957794 340.319092,426.748718 
	C333.645599,427.000000 327.291199,427.000000 320.468384,427.000000 
	C313.594421,425.075867 307.115814,425.952606 300.322937,426.747681 
	C293.645599,427.000000 287.291199,427.000000 280.468384,427.000000 
	C273.594421,425.075867 267.115814,425.952606 260.322937,426.747681 
	C253.645599,427.000000 247.291214,427.000000 240.468414,427.000000 
	C233.925781,425.137299 227.778137,425.957794 221.319092,426.748718 
	C214.645599,427.000000 208.291214,427.000000 201.468414,427.000000 
	C194.594421,425.075867 188.115814,425.952576 181.322952,426.747681 
	C174.645599,427.000000 168.291214,427.000000 161.468414,427.000000 
	C154.594421,425.075867 148.115814,425.952576 141.322952,426.747681 
	C134.978851,427.000000 128.957687,427.000000 122.468269,427.000000 
	C115.594414,425.075867 109.115799,425.952606 102.322952,426.747681 
	C95.645599,427.000000 89.291206,427.000000 82.468399,427.000000 
	C75.594414,425.075867 69.115799,425.952606 62.322945,426.747681 
	C55.645603,427.000000 49.291203,427.000000 42.468403,427.000000 
	C35.925793,425.137329 29.778160,425.957733 23.319103,426.748749 
	C16.645601,427.000000 10.291203,427.000000 3.468402,427.000000 
	C1.713995,425.420502 2.016689,423.526855 2.016549,421.721924 
	C2.005866,283.987427 1.990657,146.252945 2.014180,8.518449 
	C2.014293,7.852080 2.049613,7.186883 2.212381,6.062421 
	C4.481249,2.670282 7.692402,3.823153 10.521650,3.512795 
	C14.509111,3.075384 18.810606,4.644819 22.696091,1.318639 
	C29.021152,1.000000 35.042305,1.000000 41.531731,1.000000 
	C46.093330,4.469542 56.674435,4.773889 61.749367,1.280423 
	C68.354401,1.000000 74.708794,1.000000 81.531601,1.000000 
	C86.093330,4.469544 96.674438,4.773889 101.749359,1.280421 
	C108.354401,1.000000 114.708794,1.000000 121.531601,1.000000 
	C126.116768,4.511990 135.697495,4.798787 140.751526,1.276943 
	C147.354401,1.000000 153.708786,1.000000 160.531586,1.000000 
	C165.093323,4.469537 175.674408,4.773889 180.749359,1.280428 
	C187.354401,1.000000 193.708786,1.000000 200.531586,1.000000 
	C205.093323,4.469538 215.674408,4.773889 220.749359,1.280428 
	C227.021149,1.000000 233.042297,1.000000 239.531723,1.000000 
	C244.093338,4.469547 254.674454,4.773890 259.749359,1.280420 
	C266.354401,1.000000 272.708801,1.000000 279.531616,1.000000 
	C284.093323,4.469546 294.674500,4.773882 299.749390,1.280412 
	C306.354401,1.000000 312.708801,1.000000 319.531616,1.000000 
	C324.093323,4.469546 334.674500,4.773882 339.749390,1.280412 
	C346.021149,1.000000 352.042297,1.000000 358.531738,1.000000 
	C363.093323,4.469546 373.674500,4.773882 378.749390,1.280412 
	C385.354401,1.000000 391.708801,1.000000 398.531616,1.000000 
	C403.093323,4.469546 413.674500,4.773882 418.749390,1.280412 
	C425.354401,1.000000 431.708801,1.000000 438.531616,1.000000 
	C443.116791,4.512009 452.697571,4.798793 457.751526,1.276929 
	C464.354401,1.000000 470.708801,1.000000 477.531616,1.000000 
	C482.093323,4.469546 492.674500,4.773882 497.749390,1.280412 
	C504.354401,1.000000 510.708832,1.000000 517.531616,1.000000 
	C522.093262,4.469529 532.674438,4.773901 537.749390,1.280444 
	C544.021179,1.000000 550.042297,1.000000 556.531738,1.000000 
	C561.093262,4.469529 571.674438,4.773901 576.749390,1.280444 
	C583.354431,1.000000 589.708801,1.000000 596.531616,1.000000 
	C601.093262,4.469529 611.674438,4.773901 616.749390,1.280444 
	C622.661072,1.000000 628.324036,1.081210 633.982056,0.950170 
	C635.664490,0.911205 636.373901,1.183960 636.026245,2.984313 
	C635.871277,3.786892 636.000000,4.644265 636.000000,5.476775 
	C636.000000,145.005417 636.000000,284.534058 636.000000,424.531342 
	C632.472046,426.937958 628.650146,425.620178 624.979309,425.982544 
	C622.564087,426.220947 620.087524,425.593933 617.356201,426.737976 
	C610.645569,427.000000 604.291199,427.000000 597.468384,427.000000 
	C590.594421,425.075867 584.115845,425.952606 577.322998,426.747681 
	C570.645569,427.000000 564.291199,427.000000 557.468384,427.000000 
	C550.925781,425.137329 544.778137,425.957733 538.319092,426.748749 
	C531.645569,427.000000 525.291199,427.000000 518.468384,427.000000 
	C511.594421,425.075867 505.115814,425.952606 498.322937,426.747681 
	C491.645599,427.000000 485.291199,427.000000 478.468384,427.000000 
	C471.594421,425.075867 465.115814,425.952606 458.322937,426.747681 
	C451.978851,427.000000 445.957703,427.000000 439.468262,427.000000 
	C432.594421,425.075867 426.115814,425.952606 419.322937,426.747681 
	C412.645599,427.000000 406.291199,427.000000 399.468384,427.000000 
	C392.594421,425.075867 386.115814,425.952606 379.322937,426.747681 
z"/>
<path fill="#F0F0F0" opacity="1.000000" stroke="none" 
	d="
M3.252320,4.594511 
	C3.005524,145.324234 3.003131,285.697113 3.000369,426.534973 
	C2.372977,426.588257 0.882291,427.972168 0.988542,426.002869 
	C1.051233,424.840942 1.000000,423.672882 1.000000,422.507568 
	C1.000000,283.502899 0.995424,144.498215 1.061899,5.493574 
	C1.062598,4.032176 -0.091360,2.106614 2.500000,1.000000 
	C3.797119,1.982329 3.964415,3.061285 3.252320,4.594511 
z"/>
<path fill="#CFCFCF" opacity="1.000000" stroke="none" 
	d="
M616.531616,1.000000 
	C617.218506,3.455468 616.804871,5.161518 613.639099,5.021905 
	C609.178345,4.825182 604.700500,4.894909 600.233765,5.004263 
	C597.912415,5.061094 596.802002,4.210436 597.007935,1.422434 
	C603.354431,1.000000 609.708801,1.000000 616.531616,1.000000 
z"/>
<path fill="#CFCFCF" opacity="1.000000" stroke="none" 
	d="
M3.475548,4.961044 
	C3.002086,3.898123 2.996255,2.844885 2.995212,1.395823 
	C9.354398,1.000000 15.708797,1.000000 22.531597,1.000000 
	C23.245106,3.802969 22.303038,5.180062 19.150553,5.037693 
	C14.090738,4.809186 9.013217,4.972814 3.475548,4.961044 
z"/>
<path fill="#CFCFCF" opacity="1.000000" stroke="none" 
	d="
M61.531597,1.000000 
	C62.261845,3.476716 61.817566,5.155277 58.663967,5.021918 
	C54.205696,4.833387 49.731647,4.896743 45.268051,5.005095 
	C42.944469,5.061499 41.847752,4.190502 42.020676,1.419842 
	C48.354397,1.000000 54.708797,1.000000 61.531597,1.000000 
z"/>
<path fill="#CFCFCF" opacity="1.000000" stroke="none" 
	d="
M101.531601,1.000000 
	C102.161797,3.426895 101.778572,5.167901 98.607109,5.023793 
	C94.148872,4.821214 89.672737,4.895672 85.207901,5.003258 
	C82.891724,5.059070 81.771416,4.221100 81.999725,1.423877 
	C88.354401,1.000000 94.708794,1.000000 101.531601,1.000000 
z"/>
<path fill="#CFCFCF" opacity="1.000000" stroke="none" 
	d="
M180.531586,1.000000 
	C181.198151,3.445751 180.799713,5.166156 177.626846,5.023240 
	C173.163803,4.822209 168.683105,4.895737 164.213608,5.003273 
	C161.897842,5.058990 160.770035,4.226841 160.999725,1.423878 
	C167.354401,1.000000 173.708786,1.000000 180.531586,1.000000 
z"/>
<path fill="#CFCFCF" opacity="1.000000" stroke="none" 
	d="
M220.531586,1.000000 
	C221.283112,3.890992 220.218384,5.204834 217.079163,5.034731 
	C212.792145,4.802432 208.481415,4.900272 204.184372,5.003254 
	C201.879623,5.058489 200.739349,4.231382 200.986664,1.424941 
	C207.354401,1.000000 213.708786,1.000000 220.531586,1.000000 
z"/>
<path fill="#CFCFCF" opacity="1.000000" stroke="none" 
	d="
M259.531616,1.000000 
	C260.296692,3.497927 259.817810,5.148502 256.676758,5.020267 
	C252.218002,4.838235 247.744354,4.895886 243.280853,5.005472 
	C240.953445,5.062614 239.865875,4.182130 240.025818,1.418842 
	C246.354401,1.000000 252.708801,1.000000 259.531616,1.000000 
z"/>
<path fill="#CFCFCF" opacity="1.000000" stroke="none" 
	d="
M339.531616,1.000000 
	C340.268585,3.877853 339.221985,5.207716 336.077484,5.035327 
	C331.793060,4.800447 327.484344,4.898619 323.189728,5.003936 
	C320.879242,5.060596 319.754242,4.222038 319.991821,1.424547 
	C326.354401,1.000000 332.708801,1.000000 339.531616,1.000000 
z"/>
<path fill="#CFCFCF" opacity="1.000000" stroke="none" 
	d="
M299.531616,1.000000 
	C300.218323,3.455372 299.804810,5.161545 296.639008,5.021907 
	C292.178284,4.825153 287.700500,4.894915 283.233765,5.004263 
	C280.912476,5.061091 279.801971,4.210479 280.007935,1.422437 
	C286.354401,1.000000 292.708801,1.000000 299.531616,1.000000 
z"/>
<path fill="#CFCFCF" opacity="1.000000" stroke="none" 
	d="
M576.531616,1.000000 
	C577.296997,3.498136 576.817810,5.148459 573.676819,5.020258 
	C569.218079,4.838270 564.744385,4.895887 560.280884,5.005468 
	C557.953491,5.062607 556.865845,4.182124 557.025757,1.418839 
	C563.354431,1.000000 569.708801,1.000000 576.531616,1.000000 
z"/>
<path fill="#CFCFCF" opacity="1.000000" stroke="none" 
	d="
M537.531616,1.000000 
	C538.283020,3.890898 537.218384,5.204862 534.079163,5.034733 
	C529.792175,4.802404 525.481445,4.900263 521.184448,5.003255 
	C518.879700,5.058496 517.739441,4.231322 517.986633,1.424940 
	C524.354431,1.000000 530.708801,1.000000 537.531616,1.000000 
z"/>
<path fill="#CFCFCF" opacity="1.000000" stroke="none" 
	d="
M497.531616,1.000000 
	C498.198120,3.445729 497.799744,5.166171 494.626831,5.023242 
	C490.163757,4.822195 485.683075,4.895770 481.213562,5.003258 
	C478.897888,5.058948 477.769836,4.227036 477.999756,1.423877 
	C484.354401,1.000000 490.708801,1.000000 497.531616,1.000000 
z"/>
<path fill="#CFCFCF" opacity="1.000000" stroke="none" 
	d="
M418.531616,1.000000 
	C419.161774,3.426878 418.778564,5.167905 415.607117,5.023794 
	C411.148865,4.821209 406.672699,4.895708 402.207855,5.003243 
	C399.891785,5.059026 398.771210,4.221296 398.999756,1.423877 
	C405.354401,1.000000 411.708801,1.000000 418.531616,1.000000 
z"/>
<path fill="#CFCFCF" opacity="1.000000" stroke="none" 
	d="
M378.531616,1.000000 
	C379.261841,3.476727 378.817505,5.155279 375.663940,5.021919 
	C371.205688,4.833387 366.731628,4.896726 362.268036,5.005100 
	C359.944397,5.061517 358.847809,4.190433 359.020660,1.419844 
	C365.354401,1.000000 371.708801,1.000000 378.531616,1.000000 
z"/>
<path fill="#CFCFCF" opacity="1.000000" stroke="none" 
	d="
M457.531738,1.000000 
	C458.131226,3.098842 458.236664,5.066355 455.150238,4.994441 
	C450.666504,4.889970 446.177856,4.914562 441.692841,4.983746 
	C439.424896,5.018731 438.804535,3.821383 438.973145,1.425573 
	C445.021149,1.000000 451.042297,1.000000 457.531738,1.000000 
z"/>
<path fill="#CFCFCF" opacity="1.000000" stroke="none" 
	d="
M140.531723,1.000000 
	C141.131226,3.098820 141.236694,5.066360 138.150253,4.994443 
	C133.666534,4.889969 129.177856,4.914556 124.692833,4.983747 
	C122.424896,5.018735 121.804558,3.821357 121.973145,1.425572 
	C128.021149,1.000000 134.042297,1.000000 140.531723,1.000000 
z"/>
<path fill="#CDCDCD" opacity="1.000000" stroke="none" 
	d="
M577.468384,427.000000 
	C577.168884,426.545074 577.290466,425.717651 577.513489,425.689331 
	C583.982971,424.867462 590.470459,423.850128 596.930542,426.591431 
	C590.645569,427.000000 584.291199,427.000000 577.468384,427.000000 
z"/>
<path fill="#CDCDCD" opacity="1.000000" stroke="none" 
	d="
M498.468384,427.000000 
	C498.149933,426.539581 498.255310,425.697632 498.456268,425.674194 
	C504.930664,424.918152 511.427551,423.797791 517.908569,426.599670 
	C511.645599,427.000000 505.291199,427.000000 498.468384,427.000000 
z"/>
<path fill="#CDCDCD" opacity="1.000000" stroke="none" 
	d="
M458.468414,427.000000 
	C458.171387,426.546173 458.295197,425.721375 458.520966,425.692474 
	C464.983704,424.864471 471.464233,423.849609 477.923889,426.593140 
	C471.645599,427.000000 465.291199,427.000000 458.468414,427.000000 
z"/>
<path fill="#CDCDCD" opacity="1.000000" stroke="none" 
	d="
M141.468414,427.000000 
	C141.171326,426.546143 141.295135,425.721375 141.520905,425.692474 
	C147.983658,424.864502 154.464218,423.849640 160.923889,426.593140 
	C154.645599,427.000000 148.291214,427.000000 141.468414,427.000000 
z"/>
<path fill="#CDCDCD" opacity="1.000000" stroke="none" 
	d="
M419.468414,427.000000 
	C419.146606,426.540009 419.249115,425.698120 419.446167,425.675354 
	C425.914551,424.928345 432.406769,423.779083 438.893738,426.606384 
	C432.645599,427.000000 426.291199,427.000000 419.468414,427.000000 
z"/>
<path fill="#CDCDCD" opacity="1.000000" stroke="none" 
	d="
M379.468384,427.000000 
	C379.161041,426.542358 379.276093,425.707977 379.489899,425.681854 
	C385.962860,424.890808 392.455658,423.828674 398.923889,426.593140 
	C392.645599,427.000000 386.291199,427.000000 379.468384,427.000000 
z"/>
<path fill="#CDCDCD" opacity="1.000000" stroke="none" 
	d="
M300.468384,427.000000 
	C300.152069,426.539825 300.259430,425.698608 300.462708,425.674744 
	C306.938751,424.914703 313.436859,423.804138 319.914673,426.597015 
	C313.645599,427.000000 307.291199,427.000000 300.468384,427.000000 
z"/>
<path fill="#CDCDCD" opacity="1.000000" stroke="none" 
	d="
M260.468414,427.000000 
	C260.168884,426.545074 260.290436,425.717651 260.513489,425.689331 
	C266.983002,424.867493 273.470490,423.850037 279.930573,426.591461 
	C273.645599,427.000000 267.291199,427.000000 260.468414,427.000000 
z"/>
<path fill="#CDCDCD" opacity="1.000000" stroke="none" 
	d="
M181.468414,427.000000 
	C181.149948,426.539612 181.255341,425.697632 181.456314,425.674164 
	C187.930649,424.918152 194.427521,423.797729 200.908539,426.599670 
	C194.645599,427.000000 188.291214,427.000000 181.468414,427.000000 
z"/>
<path fill="#CDCDCD" opacity="1.000000" stroke="none" 
	d="
M102.468399,427.000000 
	C102.146599,426.540009 102.249084,425.698059 102.446167,425.675323 
	C108.914558,424.928406 115.406754,423.778961 121.893738,426.606384 
	C115.645599,427.000000 109.291206,427.000000 102.468399,427.000000 
z"/>
<path fill="#CDCDCD" opacity="1.000000" stroke="none" 
	d="
M62.468403,427.000000 
	C62.161072,426.542358 62.276100,425.707916 62.489891,425.681793 
	C68.962830,424.890900 75.455627,423.828583 81.923897,426.593140 
	C75.645599,427.000000 69.291206,427.000000 62.468403,427.000000 
z"/>
<path fill="#CDCDCD" opacity="1.000000" stroke="none" 
	d="
M340.468262,427.000000 
	C340.142639,426.538239 340.236328,425.695587 340.435120,425.670013 
	C346.604950,424.876129 352.794403,423.855072 358.939880,426.589142 
	C352.978851,427.000000 346.957703,427.000000 340.468262,427.000000 
z"/>
<path fill="#CDCDCD" opacity="1.000000" stroke="none" 
	d="
M221.468262,427.000000 
	C221.143616,426.538208 221.238220,425.695648 221.438004,425.669891 
	C227.608658,424.875153 233.798828,423.856964 239.942657,426.588501 
	C233.978851,427.000000 227.957703,427.000000 221.468262,427.000000 
z"/>
<path fill="#CDCDCD" opacity="1.000000" stroke="none" 
	d="
M538.468262,427.000000 
	C538.143738,426.538239 538.238342,425.695740 538.438232,425.670013 
	C544.608765,424.875122 550.798828,423.856995 556.942627,426.588501 
	C550.978821,427.000000 544.957703,427.000000 538.468262,427.000000 
z"/>
<path fill="#CDCDCD" opacity="1.000000" stroke="none" 
	d="
M23.468275,427.000000 
	C23.142712,426.538239 23.236406,425.695557 23.435232,425.669952 
	C29.605011,424.876129 35.794445,423.855011 41.939884,426.589172 
	C35.978848,427.000000 29.957697,427.000000 23.468275,427.000000 
z"/>
<path fill="#CDCDCD" opacity="1.000000" stroke="none" 
	d="
M617.469360,427.000000 
	C617.242493,424.482635 619.178589,424.992371 620.734497,424.979645 
	C625.510559,424.940582 630.287231,424.969635 635.531860,424.986115 
	C636.307190,426.571503 635.911072,427.123535 634.083557,427.063232 
	C628.707153,426.885895 623.321045,427.000000 617.469360,427.000000 
z"/>
<path fill="#1EACDF" opacity="1.000000" stroke="none" 
	d="
M97.922989,91.819931 
	C127.454544,83.068764 155.161591,86.759483 181.871964,102.181473 
	C182.593872,92.805618 183.971466,84.394150 188.911774,76.930901 
	C198.430222,62.551449 217.132874,55.541061 233.542191,60.431911 
	C250.342194,65.439201 261.876190,80.373558 261.893188,97.888695 
	C261.898376,103.255058 263.689301,102.185425 266.940125,100.487053 
	C284.171173,91.484726 302.386383,85.572495 321.982422,87.162148 
	C357.593414,90.050949 386.052490,105.768112 405.671600,136.257004 
	C406.761169,137.950302 407.076416,139.426880 406.126709,141.341675 
	C403.171173,147.300583 400.793518,153.508926 398.718567,159.916321 
	C396.302277,159.379639 396.382751,157.178635 395.654877,155.710770 
	C383.186798,130.566269 364.077759,113.542801 336.244202,107.414978 
	C279.908783,95.012199 239.032242,136.963562 232.911331,175.486023 
	C232.252365,179.633331 231.867386,183.713303 231.970917,187.871841 
	C233.254730,239.439041 202.161209,277.077728 158.798920,290.621155 
	C122.897003,301.834412 89.270134,294.643494 60.299664,269.864288 
	C33.424984,246.877670 21.219561,216.807800 24.682198,182.281189 
	C29.061548,138.613831 53.104061,108.385521 94.696510,92.877174 
	C95.630844,92.528793 96.585724,92.235497 97.922989,91.819931 
z"/>
<path fill="#1EACDF" opacity="1.000000" stroke="none" 
	d="
M546.000122,94.972450 
	C580.940247,110.190620 602.328369,136.326141 609.610291,173.167587 
	C620.784790,229.702637 579.547913,287.083923 522.553772,294.574219 
	C494.067413,298.317932 467.587646,292.424591 444.474152,274.529907 
	C441.147552,271.954437 439.586578,270.876343 438.388123,276.323883 
	C435.172424,290.940796 422.701965,296.696991 411.616882,296.504395 
	C399.156189,296.287903 389.324829,287.128601 386.800110,274.057861 
	C386.133820,270.608429 385.238586,270.399323 382.529297,272.632233 
	C362.661835,289.006195 339.410095,296.631012 314.067719,295.556885 
	C278.423218,294.046143 250.175339,278.000305 230.073074,248.202530 
	C228.568741,245.972656 228.002243,243.751785 229.434738,241.236099 
	C232.573853,235.723297 234.271759,229.611160 236.528183,223.698853 
	C238.371780,223.847992 238.365829,225.523209 238.853729,226.567932 
	C256.484100,264.318695 289.988190,280.459320 329.076538,276.963898 
	C360.171448,274.183228 390.266876,248.134750 399.740509,216.431152 
	C401.992920,208.893433 403.081512,201.199646 403.120331,193.317642 
	C403.262695,164.417236 412.629669,139.074448 433.286713,118.571907 
	C459.376099,92.677681 490.782684,83.208626 526.989014,89.582954 
	C533.391479,90.710152 539.616333,92.391960 546.000122,94.972450 
z"/>
<path fill="#1A628F" opacity="1.000000" stroke="none" 
	d="
M267.970154,236.702087 
	C267.835571,207.605209 267.817871,178.972504 267.809784,150.339783 
	C267.809143,148.087067 267.153412,145.611465 271.038574,145.763138 
	C286.991638,146.386002 302.989502,144.851440 318.922119,146.837082 
	C332.057648,148.474121 344.329254,158.537979 346.803314,170.627335 
	C349.595795,184.272812 345.914825,198.800247 332.871399,206.095230 
	C329.420929,208.025024 329.427368,209.573410 331.580261,212.541199 
	C337.338104,220.478424 342.807526,228.624908 348.382874,236.694260 
	C348.461823,236.808563 348.427948,237.000824 348.534851,237.888229 
	C341.607544,237.888229 334.741638,237.945572 327.877838,237.850357 
	C326.019897,237.824585 325.113831,236.201599 324.165283,234.821945 
	C319.927490,228.657990 315.570984,222.571747 311.485870,216.308395 
	C309.582672,213.390411 307.472595,211.669891 303.775543,212.126999 
	C299.050995,212.711136 292.995392,210.044495 289.868927,213.296371 
	C286.988525,216.292328 289.074524,222.200897 289.032135,226.817307 
	C288.929718,237.959427 289.020966,238.052185 277.828522,237.902634 
	C274.589966,237.859375 271.218872,238.862167 267.970154,236.702087 
z"/>
<path fill="#1D6490" opacity="1.000000" stroke="none" 
	d="
M418.128357,362.000000 
	C418.128174,369.822144 417.999451,377.147644 418.191833,384.464722 
	C418.267334,387.335815 417.302979,387.890167 414.555969,388.129303 
	C409.250397,388.591187 405.623138,386.971497 402.487122,382.483734 
	C397.966705,376.014923 392.701752,370.066345 386.618195,364.185730 
	C386.618195,370.552948 386.432129,376.927765 386.691498,383.284393 
	C386.835663,386.817230 386.111176,388.215057 382.133820,388.119141 
	C372.216644,387.879944 372.211182,388.105286 372.211212,378.254761 
	C372.211243,365.607452 372.316193,352.958649 372.140717,340.313782 
	C372.094421,336.978119 372.835785,335.812134 376.462128,335.666962 
	C381.376740,335.470215 384.732880,336.655914 387.670959,340.952881 
	C392.394135,347.860565 397.912170,354.224731 403.981140,361.946869 
	C403.981140,353.427887 404.064056,346.351807 403.935852,339.279510 
	C403.891418,336.827423 404.412964,335.837067 407.182251,335.739532 
	C418.132446,335.353851 418.128387,335.238098 418.128387,346.023651 
	C418.128357,351.182434 418.128357,356.341217 418.128357,362.000000 
z"/>
<path fill="#1A628F" opacity="1.000000" stroke="none" 
	d="
M546.807739,383.315857 
	C544.864929,379.975983 542.960388,377.042267 541.411499,373.931427 
	C540.193542,371.485291 538.158508,371.838104 536.274719,372.101837 
	C533.964294,372.425262 535.280090,374.474243 534.975037,375.743927 
	C534.823730,376.373535 534.948914,377.069427 534.948608,377.735352 
	C534.942993,388.967133 534.948547,388.889252 523.589355,388.067902 
	C521.377136,387.907928 520.803711,387.192963 520.811951,385.118011 
	C520.873352,369.635620 520.877319,354.152679 520.808655,338.670349 
	C520.799072,336.507538 521.507080,335.759827 523.676758,335.791656 
	C531.333130,335.904053 539.014282,335.509125 546.642822,335.990692 
	C553.405029,336.417572 557.731812,340.808563 560.359009,346.818268 
	C563.384216,353.738525 562.327576,360.356720 557.454651,365.883698 
	C555.107056,368.546356 555.003845,370.220032 556.814575,373.026123 
	C559.765869,377.599579 562.282104,382.453735 565.442810,387.997986 
	C560.198364,387.997986 555.651917,387.993713 551.105408,387.999542 
	C548.186218,388.003265 548.312195,385.149048 546.807739,383.315857 
z"/>
<path fill="#1C6490" opacity="1.000000" stroke="none" 
	d="
M477.975159,375.364502 
	C479.969604,375.364563 481.505554,375.575623 482.962616,375.326172 
	C488.029266,374.458710 489.592163,376.401886 489.210083,381.497803 
	C488.724243,387.977905 489.093903,388.006104 482.480835,388.006378 
	C473.648865,388.006775 464.814026,387.878296 455.986481,388.075836 
	C452.904083,388.144836 452.039734,387.248657 452.073151,384.156311 
	C452.233307,369.326996 452.229950,354.494110 452.076691,339.664673 
	C452.044495,336.548706 453.032166,335.704773 456.045715,335.758148 
	C465.541260,335.926361 475.044220,335.943726 484.538757,335.749146 
	C487.626190,335.685883 488.495514,336.588013 488.499146,339.671021 
	C488.509094,348.094086 488.661957,348.093872 480.143219,348.093933 
	C476.977051,348.093933 473.804901,348.214355 470.646515,348.057556 
	C467.930176,347.922699 466.366058,348.308228 466.352081,351.713257 
	C466.337830,355.183899 467.691193,355.994690 470.802612,355.803680 
	C474.288910,355.589630 477.816711,355.976562 481.292664,355.690857 
	C484.524963,355.425232 485.148163,356.717804 485.122955,359.673492 
	C485.059540,367.104675 485.206665,367.105957 477.839020,367.106262 
	C475.672699,367.106354 473.501953,367.193634 471.341095,367.084869 
	C468.460907,366.939880 466.370148,366.911011 466.308655,371.047455 
	C466.244904,375.337097 468.280823,375.623840 471.483337,375.391052 
	C473.472504,375.246429 475.480774,375.364349 477.975159,375.364502 
z"/>
<path fill="#1A628F" opacity="1.000000" stroke="none" 
	d="
M261.761169,375.370972 
	C265.875946,374.771179 267.528900,376.100220 266.944244,379.960297 
	C266.697815,381.587372 266.774689,383.294891 266.931732,384.944183 
	C267.163422,387.376709 266.150482,388.067627 263.799774,388.044800 
	C253.481979,387.944427 243.162262,387.954651 232.844193,388.039185 
	C230.721191,388.056580 229.951187,387.457825 229.962936,385.232361 
	C230.044662,369.754608 230.029785,354.276154 229.976685,338.798157 
	C229.969849,336.808075 230.333969,335.762817 232.677490,335.785980 
	C242.828842,335.886353 252.982025,335.867279 263.133881,335.796692 
	C265.209534,335.782257 265.937164,336.390900 266.094696,338.595184 
	C266.773773,348.096252 266.862701,348.089813 257.385834,348.089966 
	C254.057205,348.090027 250.712387,348.294861 247.404526,348.032867 
	C244.156952,347.775635 244.071762,349.515167 244.024734,351.963013 
	C243.974136,354.597137 244.503738,356.004059 247.559143,355.811798 
	C251.206146,355.582336 254.908340,356.050140 258.532227,355.681335 
	C262.479095,355.279724 263.586456,356.889923 263.035919,360.451294 
	C262.910278,361.264008 262.919434,362.126617 263.034698,362.942474 
	C263.476593,366.070282 262.459137,367.490631 259.029083,367.164795 
	C255.895187,366.867065 252.710266,367.133881 249.548584,367.092926 
	C246.565475,367.054260 243.831161,366.338409 243.893875,371.347748 
	C243.958878,376.540466 247.058304,375.300018 249.807373,375.352417 
	C253.633926,375.425385 257.462891,375.370819 261.761169,375.370972 
z"/>
<path fill="#24ADDE" opacity="1.000000" stroke="none" 
	d="
M386.954559,212.951050 
	C375.160065,251.663681 336.289673,276.460480 300.228302,267.876160 
	C346.085419,255.485458 375.594635,226.690216 388.167358,180.695038 
	C391.102600,191.671127 390.214325,202.157639 386.954559,212.951050 
z"/>
<path fill="#1B6390" opacity="1.000000" stroke="none" 
	d="
M313.360321,377.428162 
	C309.847382,378.977875 310.352264,382.247467 309.536438,384.768036 
	C308.743591,387.217621 307.710938,388.254364 305.049469,388.065460 
	C301.585022,387.819580 298.089935,388.005341 294.042145,388.005341 
	C298.217560,375.725830 302.237335,363.860931 306.290436,352.007416 
	C307.735809,347.780212 309.446533,343.633972 310.683868,339.349060 
	C311.462280,336.653412 312.708099,335.738770 315.573273,335.739685 
	C324.994629,335.742737 324.991180,335.608673 328.082489,344.663666 
	C332.946533,358.911499 337.815796,373.157501 342.886475,388.000305 
	C338.531403,388.000305 334.607147,387.915161 330.689240,388.036285 
	C328.737946,388.096649 328.277649,387.013275 327.701874,385.471832 
	C324.675140,377.368622 324.628754,377.385834 315.814545,377.393005 
	C315.149200,377.393555 314.483826,377.398560 313.360321,377.428162 
z"/>
<path fill="#1D6490" opacity="1.000000" stroke="none" 
	d="
M84.089630,364.585815 
	C82.313942,344.912140 100.407173,329.813965 120.930992,337.251312 
	C122.170998,337.700653 123.388145,338.325714 124.468910,339.079712 
	C127.203026,340.987183 131.351013,343.373199 130.743240,346.209442 
	C129.951859,349.902557 125.040451,351.295319 121.894325,353.653290 
	C120.404839,354.769623 120.060059,352.890045 119.391846,352.116211 
	C116.091812,348.294525 111.859871,347.393280 107.184311,348.476166 
	C102.659492,349.524170 100.270996,352.857147 99.086327,357.112915 
	C97.723671,362.008057 98.242752,366.727844 101.189285,370.933807 
	C105.331131,376.846008 113.960167,377.789307 118.443756,372.244568 
	C120.880547,369.231018 122.290413,370.219849 124.443100,371.684937 
	C124.992409,372.058777 125.579483,372.377075 126.148369,372.722229 
	C132.985611,376.871490 133.006424,378.478607 126.286888,383.399200 
	C111.495850,394.230499 90.533852,387.071991 85.228653,369.367157 
	C84.800194,367.937286 84.487053,366.472839 84.089630,364.585815 
z"/>
<path fill="#1D6591" opacity="1.000000" stroke="none" 
	d="
M180.000809,388.010040 
	C174.677429,388.009308 169.852142,387.939148 165.030411,388.040009 
	C162.930603,388.083893 162.101181,387.422241 162.111404,385.208374 
	C162.182831,369.739136 162.174728,354.269287 162.118423,338.799927 
	C162.110947,336.744934 162.658112,335.592896 164.902374,335.815582 
	C165.231644,335.848267 165.567520,335.825684 165.899872,335.814575 
	C176.485794,335.460968 176.485611,335.460724 176.485825,345.943909 
	C176.486008,354.427216 176.591339,362.912537 176.430405,371.392792 
	C176.373978,374.366028 177.208939,375.540100 180.337799,375.416504 
	C185.818405,375.200073 191.315247,375.432129 196.802338,375.325287 
	C199.086807,375.280823 199.921371,375.950256 200.047760,378.406281 
	C200.542297,388.015350 200.645584,388.010040 190.979767,388.010040 
	C187.486618,388.010040 183.993484,388.010040 180.000809,388.010040 
z"/>
<path fill="#FAFDFE" opacity="1.000000" stroke="none" 
	d="
M99.014297,110.913330 
	C140.199585,96.466522 187.895493,113.265900 208.553406,159.947205 
	C211.068649,155.988785 211.961014,151.619217 213.636108,147.603943 
	C217.251740,138.937149 217.184311,138.909012 226.672241,139.303421 
	C227.177948,141.152298 225.794678,142.368469 225.098480,143.780319 
	C216.705933,160.800568 212.630402,178.645355 213.605789,197.745651 
	C214.241821,210.200928 209.387802,221.468872 204.037521,232.438828 
	C184.121262,273.274109 120.126389,298.013672 72.544411,256.959595 
	C48.247898,235.996353 38.623959,209.119720 43.462574,178.323013 
	C48.551708,145.931747 67.821129,123.276955 99.014297,110.913330 
z"/>
<path fill="#F8FDFE" opacity="1.000000" stroke="none" 
	d="
M230.325256,130.689819 
	C223.644958,131.828064 217.438477,132.043869 211.254196,129.886551 
	C195.783539,124.489792 186.115936,108.002983 189.635895,92.741257 
	C193.712189,75.067368 208.660309,63.992874 225.758377,65.979469 
	C240.787109,67.725624 253.451233,80.475258 254.809723,95.227005 
	C256.300964,111.420158 246.919037,125.165733 230.325256,130.689819 
z"/>
<path fill="#FAFDFD" opacity="1.000000" stroke="none" 
	d="
M528.434570,274.663055 
	C514.713013,277.538025 501.348022,278.379486 488.016602,275.048523 
	C461.047516,268.310089 441.471741,252.351196 429.199921,227.421051 
	C428.399506,225.794983 427.659180,224.139313 426.525757,221.717041 
	C424.562500,226.741898 423.061157,231.159180 421.138977,235.385071 
	C417.074188,244.321579 419.824646,243.165527 408.806519,242.912308 
	C407.870972,241.883698 408.799561,241.018112 409.205841,240.265976 
	C418.110138,223.782562 421.773224,206.027405 421.758392,187.466110 
	C421.730774,152.895889 448.467682,115.873466 488.970306,107.219849 
	C539.444397,96.435768 584.280334,131.023529 591.944763,176.485489 
	C599.291321,220.062134 573.989075,260.796173 531.687073,273.637604 
	C530.732117,273.927521 529.784973,274.242920 528.434570,274.663055 
z"/>
<path fill="#F5FCFD" opacity="1.000000" stroke="none" 
	d="
M418.034393,248.630737 
	C428.943634,250.854156 435.818787,261.802551 434.656616,271.939850 
	C433.345703,283.374329 423.359131,291.914337 412.568604,291.619659 
	C401.486755,291.317017 392.047119,282.619476 391.086639,271.826538 
	C390.116119,260.920624 397.641510,250.396301 408.273956,248.178604 
	C411.327911,247.541611 414.551880,247.528580 418.034393,248.630737 
z"/>
<path fill="#F7FAFB" opacity="1.000000" stroke="none" 
	d="
M301.997437,195.150711 
	C289.414093,195.152054 289.413818,195.152054 289.414154,182.972778 
	C289.414337,177.646622 289.479767,172.319397 289.390228,166.994751 
	C289.344147,164.256241 290.306793,163.131165 293.212036,163.310944 
	C299.347351,163.690567 305.500244,163.208038 311.654907,163.849060 
	C320.027740,164.721069 326.800140,171.511948 326.777954,179.494736 
	C326.755920,187.437546 319.930450,194.426300 311.476410,195.012360 
	C308.492706,195.219208 305.487305,195.113403 301.997437,195.150711 
z"/>
<path fill="#F5F9FA" opacity="1.000000" stroke="none" 
	d="
M543.319580,348.112518 
	C547.574707,350.623932 548.728149,355.049133 546.322632,358.039093 
	C545.087830,359.573975 536.558044,360.834625 535.672729,359.311859 
	C533.949829,356.348419 534.895325,352.885803 535.074951,349.687958 
	C535.234802,346.842163 537.897888,348.418732 539.440674,348.111725 
	C540.550415,347.890869 541.740906,348.075836 543.319580,348.112518 
z"/>
<path fill="#F2F7F9" opacity="1.000000" stroke="none" 
	d="
M316.288513,368.014893 
	C314.261871,368.118835 313.821442,367.318329 314.214111,365.901276 
	C314.477844,364.949493 314.777588,364.007477 315.072052,363.064484 
	C316.092468,359.796570 317.117523,356.530151 318.479462,352.182037 
	C320.176971,357.892212 321.555328,362.528870 323.022247,367.463379 
	C320.867615,368.439667 318.746613,367.852844 316.288513,368.014893 
z"/>
<path fill="#1B6390" opacity="1.000000" stroke="none" 
	d="
M93.327332,211.999908 
	C93.327385,191.198700 93.398834,170.897003 93.259911,150.596756 
	C93.235558,147.039078 94.019424,145.607452 97.938919,145.694016 
	C111.577324,145.995224 125.234428,145.615692 138.864685,146.077499 
	C155.372345,146.636841 168.555466,156.358795 172.144913,169.875748 
	C177.256485,189.124695 166.937378,206.223267 147.549637,210.889862 
	C138.497818,213.068588 129.340347,212.013763 120.232086,212.082535 
	C116.182442,212.113113 114.540359,213.201981 114.782188,217.444305 
	C115.094208,222.917801 114.728333,228.426819 114.907623,233.912247 
	C115.007957,236.982010 113.853851,238.068039 110.839661,237.954987 
	C106.353081,237.786743 101.849648,237.771637 97.364685,237.960129 
	C94.348137,238.086929 93.213150,237.029495 93.279045,233.964844 
	C93.432823,226.812820 93.327568,219.655243 93.327332,211.999908 
z"/>
<path fill="#22AEDF" opacity="1.000000" stroke="none" 
	d="
M193.524078,195.450348 
	C195.290939,190.223206 196.903839,185.351669 198.516739,180.480148 
	C203.550507,203.901871 197.213318,224.561646 182.015732,242.313309 
	C163.673676,263.737823 140.235947,272.919403 111.777077,268.415558 
	C150.735916,257.272705 178.967926,234.287369 193.524078,195.450348 
z"/>
<path fill="#31B0DD" opacity="1.000000" stroke="none" 
	d="
M211.460052,78.230545 
	C208.400177,79.255890 205.740051,80.173111 203.054672,81.009254 
	C202.623077,81.143646 202.078781,80.916168 201.564087,80.853226 
	C210.488602,68.724953 231.907440,66.926041 242.845352,77.364075 
	C243.754272,78.231445 245.580307,79.057220 244.626160,80.451500 
	C243.748566,81.733887 242.316605,80.562233 241.094406,80.004028 
	C231.602585,75.668861 221.791473,75.797356 211.460052,78.230545 
z"/>
<path fill="#1B638F" opacity="1.000000" stroke="none" 
	d="
M453.953552,202.832840 
	C447.786407,170.174606 469.530151,143.995667 502.426300,143.970825 
	C524.499512,143.954132 542.815247,155.078766 550.009338,173.154922 
	C559.042053,195.850983 551.065552,229.747177 516.056030,237.723953 
	C491.539856,243.309875 468.260132,233.421204 457.744720,212.993118 
	C456.163513,209.921265 455.246796,206.507339 453.953552,202.832840 
z"/>
<path fill="#22ADDF" opacity="1.000000" stroke="none" 
	d="
M508.907654,269.088654 
	C503.600525,268.990295 498.776947,268.924408 493.957489,268.746368 
	C493.180298,268.717651 492.421600,268.189392 490.477661,267.436035 
	C536.401855,254.969116 565.080200,226.198395 577.788513,181.270294 
	C579.856323,190.250519 580.428894,199.195938 578.215393,207.870743 
	C569.833496,240.718781 548.954651,261.027924 515.847473,268.592438 
	C513.766968,269.067780 511.547394,268.934204 508.907654,269.088654 
z"/>
<path fill="#3DB5DC" opacity="1.000000" stroke="none" 
	d="
M399.989075,283.035553 
	C395.862915,278.821625 395.686798,278.496460 395.565308,274.063202 
	C398.589142,277.768341 402.314484,280.492798 406.481842,282.609711 
	C410.720612,284.762909 415.298004,285.269165 420.051483,285.322601 
	C416.227081,289.791687 408.220764,288.908447 399.989075,283.035553 
z"/>
<path fill="#F6FAFB" opacity="1.000000" stroke="none" 
	d="
M151.261444,183.897354 
	C148.659195,191.177902 143.877502,194.700653 136.009338,194.985443 
	C130.191513,195.196014 124.359116,194.980423 118.538170,195.137939 
	C116.018417,195.206116 115.008629,194.492828 115.057320,191.790466 
	C115.207184,183.472183 115.174438,175.148697 115.073715,166.828918 
	C115.043182,164.306473 115.857124,163.213531 118.493622,163.249084 
	C125.143494,163.338776 131.804062,163.055054 138.423233,163.942459 
	C148.316727,165.268845 153.516663,173.117645 151.261444,183.897354 
z"/>
<path fill="#FBFDFD" opacity="1.000000" stroke="none" 
	d="
M476.170166,202.505005 
	C472.831970,190.313782 473.751190,179.150146 482.833160,170.201691 
	C491.448792,161.712814 502.049866,160.202667 513.367615,163.971436 
	C525.045959,167.860275 532.565735,180.019791 531.864319,193.491745 
	C531.181946,206.597153 521.874817,217.523056 509.024261,220.304230 
	C496.513031,223.011948 483.636871,217.130035 477.795441,206.027359 
	C477.254028,204.998306 476.778076,203.934845 476.170166,202.505005 
z"/>
</svg>